<svg width="54" height="50" viewBox="0 0 54 50" fill="none" xmlns="http://www.w3.org/2000/svg">
<path d="M42.2561 26.4283C35.7699 26.4283 30.5121 31.6871 30.5121 38.1745C30.5121 44.6618 35.7699 49.9207 42.2561 49.9207C48.7422 49.9207 54 44.6616 54 38.1745C54 31.6871 48.7422 26.4283 42.2561 26.4283ZM11.7439 26.4293C5.25804 26.4293 0 31.6871 0 38.1745C0 44.6618 5.25804 49.9207 11.7439 49.9207C18.2303 49.9207 23.4885 44.6616 23.4885 38.1745C23.4885 31.6871 18.2303 26.4293 11.7439 26.4293ZM38.7439 11.7458C38.7439 18.2331 33.4859 23.4926 27.0002 23.4926C20.5139 23.4926 15.2561 18.2331 15.2561 11.7458C15.2561 5.25907 20.5137 0 27 0C33.4857 0 38.7435 5.25949 38.7435 11.7456" fill="#F06A6A"/>
</svg>
