<svg width="24" height="24" viewBox="0 0 24 24" fill="none" xmlns="http://www.w3.org/2000/svg">
<path d="M21.869 13.173C21.839 13.173 21.809 13.193 21.789 13.243C21.588 13.824 21.307 14.175 21.077 14.175C20.947 14.175 20.897 14.025 20.897 13.805C20.897 13.233 21.237 12.02 21.407 11.459C21.427 11.389 21.437 11.329 21.437 11.279C21.437 11.118 21.347 11.037 21.127 11.037C20.897 11.037 20.636 11.127 20.395 11.559C20.315 11.178 20.055 11.017 19.693 11.017C19.283 11.017 18.881 11.288 18.551 11.719C18.22 12.15 17.829 12.291 17.538 12.22C17.748 11.71 17.828 11.318 17.828 11.037C17.828 10.587 17.608 10.316 17.248 10.316C16.706 10.316 16.395 10.837 16.395 11.378C16.395 11.799 16.585 12.23 17.007 12.441C16.656 13.233 16.145 13.955 15.944 13.955C15.694 13.955 15.614 12.722 15.634 11.839C15.644 11.339 15.684 11.309 15.684 11.158C15.684 11.068 15.624 11.008 15.393 11.008C14.861 11.008 14.691 11.458 14.671 11.98C14.661 12.18 14.631 12.37 14.581 12.561C14.361 13.353 13.899 13.965 13.598 13.965C13.458 13.965 13.418 13.825 13.418 13.644C13.418 13.072 13.738 12.351 13.738 11.739C13.738 11.289 13.538 11.007 13.168 11.007C12.726 11.007 12.155 11.529 11.604 12.501C11.784 11.759 11.854 11.038 11.323 11.038C11.203 11.038 11.0927 11.068 10.992 11.128C10.9579 11.1438 10.9293 11.1693 10.9097 11.2013C10.8901 11.2334 10.8805 11.2705 10.882 11.308C10.932 12.1 10.24 14.135 9.589 14.135C9.469 14.135 9.409 14.005 9.409 13.795C9.409 13.223 9.749 12.01 9.919 11.448C9.9377 11.3863 9.94779 11.3224 9.949 11.258C9.949 11.108 9.859 11.028 9.639 11.028C9.409 11.028 9.148 11.118 8.907 11.548C8.817 11.168 8.567 11.008 8.205 11.008C7.614 11.008 6.962 11.628 6.671 12.441C6.281 13.524 5.509 14.576 4.456 14.576C3.504 14.576 3.002 13.784 3.002 12.531C3.002 10.717 4.336 9.24299 5.318 9.24299C5.789 9.24299 6.01 9.54299 6.01 10.005C6.01 10.566 5.7 10.817 5.7 11.037C5.7 11.097 5.75 11.167 5.86 11.167C6.29 11.167 6.792 10.667 6.792 9.97499C6.792 9.28299 6.25 8.79199 5.268 8.79199C3.634 8.79199 2 10.426 2 12.532C2 14.205 2.822 15.208 4.246 15.208C5.218 15.208 6.07 14.456 6.521 13.574C6.571 14.306 6.902 14.686 7.413 14.686C7.864 14.686 8.225 14.416 8.506 13.945C8.616 14.435 8.896 14.676 9.268 14.676C9.688 14.676 10.05 14.406 10.38 13.915C10.38 14.305 10.46 14.676 10.802 14.676C10.962 14.676 11.152 14.636 11.182 14.496C11.543 13.022 12.426 11.809 12.696 11.809C12.776 11.809 12.796 11.889 12.796 11.979C12.796 12.381 12.516 13.203 12.516 13.724C12.516 14.296 12.756 14.666 13.258 14.666C13.809 14.666 14.37 13.995 14.741 13.002C14.861 13.925 15.112 14.666 15.503 14.666C15.984 14.666 16.856 13.644 17.378 12.561C17.578 12.591 17.889 12.581 18.19 12.371C18.06 12.691 17.99 13.042 17.99 13.383C17.99 14.386 18.47 14.666 18.881 14.666C19.332 14.666 19.693 14.396 19.974 13.925C20.064 14.345 20.304 14.656 20.736 14.656C21.408 14.656 21.999 13.965 21.999 13.393C22.009 13.273 21.939 13.173 21.869 13.173ZM7.834 14.125C7.564 14.125 7.454 13.855 7.454 13.443C7.454 12.732 7.944 11.539 8.456 11.539C8.676 11.539 8.766 11.799 8.766 12.13C8.766 12.852 8.306 14.125 7.834 14.125ZM17.187 12C17.027 11.81 16.967 11.539 16.967 11.308C16.967 11.018 17.077 10.777 17.197 10.777C17.317 10.777 17.367 10.897 17.367 11.077C17.357 11.358 17.257 11.789 17.187 12ZM19.302 14.125C19.032 14.125 18.922 13.805 18.922 13.443C18.922 12.752 19.412 11.539 19.924 11.539C20.144 11.539 20.224 11.799 20.224 12.13C20.234 12.852 19.784 14.125 19.302 14.125Z" fill="black"/>
</svg>
