<svg width="20" height="14" viewBox="0 0 20 14" fill="none" xmlns="http://www.w3.org/2000/svg">
<path d="M12 7C12 6.46957 12.2107 5.96086 12.5858 5.58579C12.9609 5.21071 13.4696 5 14 5C14.5304 5 15.0391 5.21071 15.4142 5.58579C15.7893 5.96086 16 6.46957 16 7C16 7.53043 15.7893 8.03914 15.4142 8.41421C15.0391 8.78929 14.5304 9 14 9C13.4696 9 12.9609 8.78929 12.5858 8.41421C12.2107 8.03914 12 7.53043 12 7ZM6 7C6 6.46957 6.21071 5.96086 6.58579 5.58579C6.96086 5.21071 7.46957 5 8 5C8.53043 5 9.03914 5.21071 9.41421 5.58579C9.78929 5.96086 10 6.46957 10 7C10 7.53043 9.78929 8.03914 9.41421 8.41421C9.03914 8.78929 8.53043 9 8 9C7.46957 9 6.96086 8.78929 6.58579 8.41421C6.21071 8.03914 6 7.53043 6 7ZM0 7C0 6.46957 0.210714 5.96086 0.585786 5.58579C0.960859 5.21071 1.46957 5 2 5C2.53043 5 3.03914 5.21071 3.41421 5.58579C3.78929 5.96086 4 6.46957 4 7C4 7.53043 3.78929 8.03914 3.41421 8.41421C3.03914 8.78929 2.53043 9 2 9C1.46957 9 0.960859 8.78929 0.585786 8.41421C0.210714 8.03914 0 7.53043 0 7ZM20 0H18V14H20V0Z" fill="black"/>
</svg>
