<svg width="275" height="69" viewBox="0 0 275 69" fill="none" xmlns="http://www.w3.org/2000/svg">
<g filter="url(#filter0_d_106_30)">
<path d="M31.8906 0L38.4747 21.0081H59.7813L42.5439 33.9919L49.128 55L31.8906 42.0163L14.6533 55L21.2374 33.9919L4 21.0081H25.3065L31.8906 0Z" fill="#6D3710"/>
</g>
<g filter="url(#filter1_d_106_30)">
<path d="M46.1094 0L52.6935 21.0081H74L56.7627 33.9919L63.3467 55L46.1094 42.0163L28.872 55L35.4561 33.9919L18.2188 21.0081H39.5253L46.1094 0Z" fill="#9D480B"/>
</g>
<path d="M269.499 35.226C269.829 35.226 270.136 35.1857 270.42 35.105C270.656 35.0378 270.88 34.9303 271.093 34.7824C271.317 34.6211 271.465 34.3859 271.536 34.0767C271.772 34.1305 271.973 34.1775 272.138 34.2178C272.303 34.2447 272.445 34.2716 272.563 34.2985C272.693 34.3388 272.805 34.3657 272.9 34.3791C272.994 34.406 273.106 34.4329 273.236 34.4598C273.354 34.4867 273.496 34.5203 273.661 34.5606C273.838 34.5875 274.045 34.6278 274.281 34.6816C274.104 34.6547 273.921 34.6749 273.732 34.7421C273.555 34.8093 273.384 34.8832 273.218 34.9639C273.029 35.058 272.852 35.1722 272.687 35.3067C272.581 35.3873 272.457 35.5083 272.315 35.6696C272.185 35.8309 271.996 35.9855 271.748 36.1334C271.5 36.2812 271.17 36.4089 270.756 36.5165C270.355 36.6106 269.835 36.6442 269.198 36.6173C268.43 36.5904 267.786 36.4358 267.267 36.1535C266.747 35.8578 266.328 35.5016 266.009 35.0849C265.69 34.6547 265.46 34.1909 265.318 33.6936C265.177 33.1962 265.1 32.7325 265.088 32.3023C265.076 31.8721 265.188 31.4218 265.425 30.9513C265.661 30.4809 265.991 30.0507 266.417 29.6609C266.853 29.271 267.379 28.9551 267.993 28.7132C268.607 28.4578 269.28 28.3301 270.012 28.3301C270.437 28.3301 270.827 28.3906 271.181 28.5116C271.547 28.6191 271.878 28.767 272.173 28.9551C272.48 29.1433 272.746 29.3584 272.97 29.6004C273.195 29.8289 273.384 30.0641 273.537 30.3061C273.691 30.5615 273.821 30.8304 273.927 31.1126C274.021 31.3546 274.098 31.6302 274.157 31.9394C274.216 32.2485 274.234 32.5644 274.21 32.887C273.313 32.9139 272.587 32.9341 272.032 32.9475C271.488 32.961 271.063 32.9677 270.756 32.9677H269.959H269.357C269.144 32.9677 268.867 32.9744 268.524 32.9879C268.182 33.0013 267.763 33.0215 267.267 33.0483C267.326 33.586 267.473 34.0028 267.71 34.2985C267.958 34.5808 268.217 34.7959 268.489 34.9437C268.796 35.105 269.133 35.1991 269.499 35.226ZM267.904 31.5966C268.282 31.6235 268.595 31.6436 268.843 31.6571C269.103 31.6705 269.316 31.6839 269.481 31.6974C269.658 31.7108 269.8 31.7176 269.906 31.7176H270.349C270.644 31.7176 271.193 31.6974 271.996 31.6571C271.961 31.0656 271.849 30.6153 271.66 30.3061C271.483 29.9969 271.294 29.7684 271.093 29.6205C270.857 29.4592 270.597 29.3651 270.313 29.3383C269.546 29.3517 268.973 29.5332 268.595 29.8827C268.229 30.2322 267.999 30.8035 267.904 31.5966Z" fill="black"/>
<path d="M261.776 29.9224C261.74 29.6536 261.711 29.4318 261.687 29.257C261.664 29.0688 261.64 28.921 261.616 28.8134C261.593 28.679 261.575 28.5782 261.563 28.511C261.54 28.4438 261.51 28.3698 261.475 28.2892C261.451 28.222 261.41 28.1413 261.351 28.0472C261.303 27.9531 261.244 27.8456 261.173 27.7246C261.327 27.7784 261.48 27.812 261.634 27.8254C261.799 27.8389 261.953 27.8523 262.095 27.8658C262.248 27.8792 262.407 27.8792 262.573 27.8658C262.738 27.8658 262.927 27.859 263.14 27.8456C263.329 27.8321 263.553 27.8254 263.813 27.8254C264.084 27.812 264.391 27.7918 264.734 27.7649C264.533 27.8187 264.362 27.9128 264.22 28.0472C264.09 28.1682 263.978 28.3026 263.884 28.4505C263.777 28.6118 263.689 28.7866 263.618 28.9747C263.559 29.1495 263.523 29.4856 263.512 29.9829C263.5 30.4669 263.5 31.0449 263.512 31.717C263.523 32.3757 263.535 33.0881 263.547 33.8543C263.571 34.6205 263.582 35.3532 263.582 36.0522C263.594 36.7512 263.594 37.3897 263.582 37.9677C263.571 38.5323 263.541 38.949 263.494 39.2178C263.329 40.0647 263.022 40.7503 262.573 41.2745C262.124 41.8122 261.534 42.1012 260.801 42.1415C259.916 42.1819 259.213 42.0878 258.694 41.8593C258.186 41.6307 257.79 41.3484 257.507 41.0124C257.223 40.6898 257.011 40.3604 256.869 40.0244C256.727 39.6883 256.58 39.4329 256.426 39.2582C256.285 39.1103 256.143 38.9691 256.001 38.8347C255.871 38.7272 255.735 38.6196 255.594 38.5121C255.464 38.4046 255.334 38.3374 255.204 38.3105C255.547 38.3239 255.854 38.3306 256.125 38.3306C256.397 38.3306 256.627 38.3306 256.816 38.3306C257.029 38.3306 257.217 38.3239 257.383 38.3105H257.95H259.562C259.325 38.3911 259.148 38.4785 259.03 38.5726C258.912 38.6801 258.829 38.7877 258.782 38.8952C258.735 39.0162 258.711 39.1372 258.711 39.2582C258.759 39.5808 258.912 39.816 259.172 39.9639C259.432 40.1117 259.786 40.1991 260.235 40.226C260.672 40.2529 260.973 40.2395 261.138 40.1857C261.303 40.1454 261.433 40.0647 261.528 39.9437C261.717 39.6211 261.876 39.2044 262.006 38.6936C262.1 38.2634 262.165 37.7056 262.201 37.02C262.248 36.321 262.195 35.4674 262.041 34.4592C261.664 35.0507 261.227 35.4943 260.731 35.79C260.235 36.0858 259.762 36.3008 259.314 36.4353C258.782 36.5831 258.245 36.6571 257.702 36.6571C256.273 36.5898 255.204 36.2135 254.496 35.5279C253.787 34.8423 253.462 33.9215 253.521 32.7655C253.557 32.1875 253.71 31.6095 253.982 31.0314C254.265 30.4534 254.631 29.9359 255.08 29.4788C255.541 29.0218 256.066 28.6589 256.657 28.39C257.247 28.1212 257.861 28.0069 258.499 28.0472C258.983 28.101 259.438 28.2018 259.863 28.3497C260.229 28.4841 260.589 28.6723 260.943 28.9143C261.309 29.1562 261.587 29.4923 261.776 29.9224ZM256.143 31.9388C256.072 32.463 256.102 32.9537 256.231 33.4107C256.373 33.8678 256.568 34.2643 256.816 34.6004C257.064 34.923 257.341 35.1784 257.649 35.3666C257.956 35.5413 258.245 35.622 258.516 35.6086C259.083 35.5951 259.573 35.3061 259.987 34.7415C260.4 34.1635 260.648 33.3032 260.731 32.1606C260.766 31.596 260.701 31.1121 260.536 30.7088C260.382 30.2921 260.187 29.956 259.951 29.7006C259.715 29.4452 259.467 29.2638 259.207 29.1562C258.947 29.0487 258.741 29.0016 258.587 29.0151C258.375 29.042 258.139 29.1159 257.879 29.2369C257.631 29.3444 257.389 29.5124 257.153 29.741C256.916 29.956 256.704 30.2451 256.515 30.608C256.338 30.9709 256.214 31.4145 256.143 31.9388Z" fill="black"/>
<path d="M243.336 36.2535C243.419 35.8099 243.478 35.4201 243.513 35.0841C243.561 34.7346 243.596 34.4455 243.62 34.217C243.643 33.9482 243.655 33.7197 243.655 33.5315C243.643 33.3029 243.631 33.0341 243.62 32.7249C243.62 32.4023 243.608 32.0864 243.584 31.7772C243.572 31.4546 243.555 31.1723 243.531 30.9304C243.507 30.675 243.478 30.4935 243.443 30.386C243.395 30.2784 243.33 30.1642 243.248 30.0432C243.082 29.8147 242.84 29.5929 242.521 29.3778C242.793 29.3106 243.023 29.2568 243.212 29.2165C243.413 29.1627 243.578 29.1156 243.708 29.0753C243.85 29.0216 243.974 28.9745 244.08 28.9342C244.175 28.8938 244.287 28.8535 244.417 28.8132C244.523 28.7863 244.653 28.7527 244.806 28.7124C244.96 28.6721 245.137 28.625 245.338 28.5712L245.285 30.4061C245.663 29.8953 246.046 29.5122 246.436 29.2568C246.826 29.0014 247.192 28.8199 247.534 28.7124C247.924 28.578 248.308 28.5107 248.686 28.5107C249.158 28.5376 249.595 28.625 249.996 28.7729C250.41 28.9207 250.764 29.0955 251.059 29.2971C251.366 29.4853 251.614 29.6869 251.803 29.902C251.992 30.1171 252.104 30.3053 252.14 30.4666C252.281 30.9909 252.317 31.4748 252.246 31.9184C252.175 32.3485 252.081 32.772 251.963 33.1887C251.856 33.592 251.762 33.9952 251.679 34.3985C251.608 34.8018 251.638 35.2386 251.768 35.7091C251.815 35.8301 251.862 35.9511 251.909 36.0721C251.957 36.1796 252.016 36.2872 252.087 36.3947C252.157 36.5022 252.24 36.5896 252.335 36.6568C252.205 36.6434 252.075 36.6367 251.945 36.6367C251.815 36.6232 251.697 36.6098 251.591 36.5963C251.461 36.5829 251.343 36.5694 251.236 36.556C251.118 36.5426 250.959 36.5358 250.758 36.5358C250.416 36.5358 249.884 36.556 249.164 36.5963C249.27 36.314 249.353 36.0788 249.412 35.8906C249.483 35.689 249.542 35.5277 249.589 35.4067C249.636 35.2588 249.672 35.1445 249.695 35.0639C249.837 34.6741 249.92 34.2305 249.943 33.7331C249.979 33.2357 249.949 32.7316 249.855 32.2208C249.819 32.0461 249.76 31.8377 249.678 31.5958C249.595 31.3538 249.483 31.1186 249.341 30.89C249.211 30.6615 249.052 30.4666 248.863 30.3053C248.686 30.144 248.479 30.0499 248.243 30.023C248.007 29.9961 247.741 30.0633 247.446 30.2246C247.162 30.386 246.855 30.6817 246.525 31.1118C246.277 31.4748 246.082 31.9184 245.94 32.4426C245.81 32.8862 245.722 33.4441 245.674 34.1162C245.627 34.7749 245.698 35.5478 245.887 36.435C245.722 36.4081 245.568 36.3947 245.426 36.3947C245.285 36.3812 245.167 36.3678 245.072 36.3544C244.954 36.3409 244.848 36.3275 244.753 36.314C244.647 36.314 244.529 36.3073 244.399 36.2939C244.281 36.2939 244.133 36.2939 243.956 36.2939C243.779 36.2804 243.572 36.267 243.336 36.2535Z" fill="black"/>
<path d="M234.373 30.3054C234.432 30.2248 234.468 30.0769 234.48 29.8618C234.503 29.6333 234.55 29.3779 234.621 29.0956C234.704 28.8133 234.84 28.5176 235.029 28.2084C235.218 27.8992 235.525 27.6102 235.95 27.3414C236.363 27.0725 236.765 26.9112 237.154 26.8575C237.544 26.8037 237.916 26.8238 238.27 26.9179C238.625 27.012 238.955 27.1599 239.262 27.3615C239.581 27.5632 239.87 27.785 240.13 28.0269C240.307 28.1882 240.449 28.4235 240.555 28.7327C240.662 29.0284 240.744 29.3645 240.803 29.7408C240.862 30.1172 240.904 30.5138 240.927 30.9305C240.963 31.3338 240.986 31.7303 240.998 32.1201C241.01 32.4965 241.016 32.846 241.016 33.1686C241.028 33.4778 241.051 33.7332 241.087 33.9349C241.134 34.2306 241.217 34.486 241.335 34.7011C241.453 34.9027 241.583 35.0775 241.724 35.2253C241.866 35.3598 242.008 35.4673 242.149 35.5479C242.291 35.6286 242.415 35.6891 242.521 35.7294C242.592 35.7697 242.657 35.7966 242.716 35.8101C242.834 35.8638 242.917 35.8638 242.964 35.8101C242.893 35.9983 242.828 36.1596 242.769 36.294C242.71 36.4284 242.663 36.5427 242.628 36.6368C242.58 36.7443 242.539 36.8317 242.504 36.8989C242.468 36.9796 242.427 37.0535 242.38 37.1207C242.344 37.1879 242.297 37.2618 242.238 37.3425C242.179 37.4232 242.12 37.5105 242.061 37.6046C241.907 37.5374 241.76 37.4568 241.618 37.3627C241.488 37.2686 241.37 37.1812 241.264 37.1005C241.134 37.0064 241.016 36.9123 240.91 36.8182C240.803 36.7242 240.703 36.6166 240.608 36.4956C240.526 36.3881 240.437 36.2738 240.343 36.1529C240.26 36.0319 240.189 35.8974 240.13 35.7496C240.059 35.9243 239.888 36.173 239.616 36.4956C239.357 36.8182 239.014 37.114 238.589 37.3828C238.164 37.6382 237.668 37.8197 237.101 37.9272C236.546 38.0348 235.932 37.9608 235.259 37.7054C234.964 37.5979 234.686 37.4433 234.426 37.2417C234.167 37.0266 233.942 36.7712 233.753 36.4755C233.576 36.1797 233.446 35.8437 233.364 35.4673C233.293 35.0775 233.299 34.6473 233.381 34.1768C233.464 33.7063 233.612 33.3098 233.824 32.9872C234.037 32.6646 234.291 32.4024 234.586 32.2008C234.881 31.9992 235.212 31.8446 235.578 31.737C235.944 31.6295 236.322 31.5556 236.711 31.5152C237.019 31.5018 237.326 31.522 237.633 31.5757C237.892 31.6295 238.164 31.7303 238.447 31.8782C238.731 32.0126 238.973 32.221 239.174 32.5032C239.162 31.7908 239.138 31.2262 239.103 30.8095C239.079 30.3794 239.056 30.05 239.032 29.8215C238.985 29.5526 238.943 29.3645 238.908 29.2569C238.849 29.1628 238.784 29.0553 238.713 28.9343C238.654 28.8133 238.577 28.7058 238.483 28.6117C238.388 28.5041 238.27 28.4168 238.129 28.3496C237.987 28.2823 237.822 28.2555 237.633 28.2689C237.432 28.2823 237.272 28.3428 237.154 28.4504C237.036 28.5579 236.942 28.6856 236.871 28.8335C236.812 28.9679 236.776 29.1158 236.765 29.2771C236.753 29.4384 236.759 29.5795 236.782 29.7005C236.806 29.7812 236.841 29.8685 236.889 29.9626C236.936 30.0433 237.001 30.1307 237.083 30.2248C237.166 30.3189 237.278 30.3995 237.42 30.4667C237.148 30.5071 236.906 30.5407 236.694 30.5675C236.481 30.581 236.298 30.6012 236.145 30.628C235.968 30.6549 235.814 30.6751 235.684 30.6885C235.554 30.702 235.401 30.7289 235.224 30.7692C235.07 30.7961 234.881 30.8297 234.657 30.87C234.432 30.9103 234.173 30.9641 233.877 31.0313C233.948 30.9372 234.013 30.8498 234.072 30.7692C234.131 30.6751 234.184 30.5944 234.232 30.5272C234.279 30.4466 234.326 30.3726 234.373 30.3054ZM237.03 32.7049C236.818 32.7183 236.605 32.7788 236.393 32.8864C236.18 32.9805 235.991 33.1216 235.826 33.3098C235.661 33.4845 235.519 33.6929 235.401 33.9349C235.294 34.1634 235.241 34.4188 235.241 34.7011C235.241 34.9834 235.3 35.232 235.418 35.4471C235.548 35.6488 235.714 35.8168 235.914 35.9512C236.127 36.0856 236.351 36.1663 236.587 36.1932C236.835 36.2201 237.078 36.1932 237.314 36.1125C237.538 36.0184 237.751 35.8706 237.951 35.6689C238.152 35.4538 238.323 35.2253 238.465 34.9834C238.607 34.728 238.707 34.4793 238.766 34.2373C238.825 33.9819 238.831 33.7736 238.784 33.6122C238.689 33.2627 238.477 33.0208 238.146 32.8864C237.816 32.7385 237.444 32.678 237.03 32.7049Z" fill="black"/>
<path d="M223.037 23.188C223.308 23.2418 223.556 23.2821 223.781 23.309C224.005 23.3224 224.194 23.3359 224.348 23.3493C224.525 23.3628 224.678 23.3695 224.808 23.3695C224.985 23.356 225.192 23.3359 225.428 23.309C225.629 23.2821 225.871 23.2485 226.154 23.2082C226.45 23.1679 226.786 23.1141 227.164 23.0469C226.987 23.1544 226.839 23.262 226.721 23.3695C226.603 23.4636 226.509 23.5644 226.438 23.6719C226.355 23.7929 226.29 23.9072 226.243 24.0147C226.184 24.1895 226.119 24.5524 226.048 25.1036C225.977 25.574 225.889 26.273 225.782 27.2006C225.688 28.1281 225.564 29.385 225.41 30.9711C225.836 30.4872 226.237 30.1243 226.615 29.8823C227.005 29.6269 227.347 29.4454 227.642 29.3379C227.985 29.2169 228.304 29.1564 228.599 29.1564C228.965 29.1968 229.337 29.3312 229.715 29.5597C230.104 29.7748 230.465 30.0302 230.795 30.3259C231.138 30.6216 231.433 30.9375 231.681 31.2736C231.941 31.6097 232.124 31.9054 232.23 32.1608C232.301 32.3356 232.336 32.5641 232.336 32.8464C232.336 33.1152 232.313 33.4109 232.265 33.7336C232.218 34.0562 232.153 34.3855 232.071 34.7216C231.988 35.0576 231.905 35.3735 231.823 35.6693C231.752 35.965 231.687 36.2271 231.628 36.4556C231.569 36.6707 231.533 36.8253 231.521 36.9194C231.498 37.121 231.51 37.3159 231.557 37.5041C231.592 37.6654 231.663 37.8402 231.769 38.0284C231.876 38.2031 232.035 38.351 232.248 38.472C232.082 38.4451 231.905 38.4249 231.716 38.4115C231.539 38.3846 231.368 38.3645 231.203 38.351C231.014 38.3376 230.825 38.3308 230.636 38.3308H229.998C229.797 38.3308 229.567 38.3376 229.307 38.351C229.048 38.351 228.764 38.3577 228.457 38.3712C228.622 38.304 228.764 38.2166 228.882 38.109C229 37.9881 229.101 37.8738 229.183 37.7663C229.278 37.6453 229.36 37.5176 229.431 37.3832C229.479 37.2756 229.538 37.074 229.608 36.7783C229.679 36.4691 229.744 36.1196 229.803 35.7297C229.862 35.3265 229.904 34.903 229.927 34.4594C229.963 34.0158 229.969 33.5924 229.945 33.1891C229.933 32.7724 229.88 32.4028 229.786 32.0801C229.703 31.7575 229.573 31.5223 229.396 31.3744C228.865 30.9174 228.38 30.6956 227.943 30.709C227.518 30.709 227.111 30.9039 226.721 31.2938C226.58 31.4416 226.444 31.5895 226.314 31.7374C226.196 31.8718 226.066 32.0331 225.924 32.2213C225.782 32.396 225.653 32.5775 225.534 32.7657C225.534 32.9673 225.54 33.1891 225.552 33.4311C225.564 33.6731 225.576 33.9083 225.588 34.1368C225.599 34.3922 225.617 34.6476 225.641 34.903C225.664 35.2929 225.7 35.676 225.747 36.0524C225.782 36.375 225.83 36.7312 225.889 37.121C225.948 37.4974 226.024 37.8402 226.119 38.1494C225.965 38.1225 225.806 38.1158 225.641 38.1292C225.475 38.1292 225.316 38.1292 225.162 38.1292C224.985 38.1427 224.814 38.1494 224.649 38.1494C224.495 38.1628 224.336 38.183 224.171 38.2099C224.029 38.2367 223.875 38.2636 223.71 38.2905C223.545 38.304 223.385 38.3308 223.232 38.3712C223.373 38.062 223.492 37.7595 223.586 37.4638C223.68 37.1546 223.757 36.8858 223.816 36.6573C223.887 36.3884 223.946 36.1263 223.993 35.8709C224.029 35.6693 224.052 35.2861 224.064 34.7216C224.088 34.1435 224.106 33.4849 224.117 32.7455C224.129 31.9928 224.135 31.1997 224.135 30.3662C224.135 29.5328 224.129 28.7397 224.117 27.9869C224.106 27.2342 224.082 26.5755 224.047 26.0109C224.023 25.4463 223.993 25.0565 223.958 24.8414C223.911 24.6264 223.846 24.4113 223.763 24.1962C223.692 24.008 223.598 23.8265 223.48 23.6518C223.362 23.4636 223.214 23.309 223.037 23.188Z" fill="black"/>
<path d="M223.391 31.3137C223.249 31.2868 223.072 31.2667 222.86 31.2532C222.659 31.2398 222.464 31.2331 222.275 31.2331C222.063 31.2331 221.838 31.2398 221.602 31.2532C221.354 31.2667 221.106 31.2801 220.858 31.2935C220.646 31.307 220.404 31.3272 220.132 31.354C219.872 31.3675 219.618 31.3876 219.37 31.4145C219.465 31.3608 219.547 31.2868 219.618 31.1927C219.701 31.0986 219.772 31.0045 219.831 30.9104C219.89 30.8029 219.943 30.6886 219.99 30.5677C220.049 30.366 220.043 30.1241 219.972 29.8418C219.902 29.546 219.772 29.2772 219.583 29.0352C219.406 28.7933 219.175 28.6051 218.892 28.4706C218.62 28.3228 218.319 28.2892 217.989 28.3698C217.634 28.4639 217.316 28.6051 217.032 28.7933C216.76 28.9815 216.53 29.2436 216.341 29.5796C216.164 29.9023 216.034 30.3055 215.952 30.7895C215.881 31.2599 215.863 31.8245 215.898 32.4832C215.946 33.3032 216.064 33.9551 216.253 34.4391C216.442 34.923 216.672 35.2859 216.944 35.5279C217.215 35.7699 217.51 35.9177 217.829 35.9715C218.16 36.0118 218.485 36.0118 218.803 35.9715C219.028 35.9177 219.234 35.8035 219.423 35.6287C219.577 35.4808 219.719 35.2658 219.849 34.9835C219.978 34.7012 220.037 34.3114 220.026 33.814L222.187 33.7132C221.939 34.5063 221.638 35.1381 221.283 35.6085C220.929 36.0656 220.587 36.4218 220.256 36.6772C219.866 36.9729 219.477 37.1746 219.087 37.2821C218.603 37.3762 218.172 37.4165 217.794 37.4031C217.416 37.3762 217.073 37.309 216.766 37.2015C216.459 37.0939 216.176 36.9595 215.916 36.7982C215.656 36.6369 215.408 36.4621 215.172 36.2739C215.019 36.153 214.847 35.9513 214.659 35.669C214.47 35.3867 214.292 35.0507 214.127 34.6609C213.962 34.2576 213.826 33.814 213.72 33.3301C213.613 32.8461 213.572 32.3488 213.596 31.838C213.619 31.3137 213.726 30.7895 213.915 30.2652C214.104 29.741 214.405 29.2369 214.818 28.7529C215.444 28.027 216.111 27.5566 216.82 27.3415C217.54 27.113 218.219 27.0525 218.857 27.16C219.494 27.2541 220.061 27.4625 220.557 27.7851C221.053 28.1077 221.401 28.4572 221.602 28.8336C221.803 29.21 221.95 29.499 222.045 29.7006C222.151 29.8888 222.228 30.0367 222.275 30.1442C222.334 30.2383 222.381 30.3123 222.417 30.366C222.464 30.4063 222.529 30.4668 222.612 30.5475C222.671 30.6147 222.742 30.6886 222.824 30.7693C222.895 30.8365 222.978 30.9172 223.072 31.0113C223.167 31.1054 223.273 31.2062 223.391 31.3137Z" fill="black"/>
<path d="M204.597 27.2809C204.94 27.2809 205.223 27.2876 205.448 27.3011C205.672 27.3011 205.849 27.3011 205.979 27.3011H206.333H206.741C206.906 27.3011 207.124 27.3011 207.396 27.3011C207.68 27.2876 208.046 27.2675 208.494 27.2406C208.282 27.2944 208.116 27.3548 207.998 27.4221C207.88 27.4758 207.792 27.5363 207.733 27.6035C207.662 27.6707 207.62 27.7447 207.609 27.8253C207.62 27.9329 207.662 28.1009 207.733 28.3294C207.792 28.5311 207.892 28.8066 208.034 29.1561C208.187 29.5056 208.412 29.9761 208.707 30.5676C209.203 29.9223 209.581 29.4115 209.841 29.0351C210.1 28.6588 210.295 28.3697 210.425 28.1681C210.555 27.9396 210.632 27.785 210.655 27.7043C210.644 27.6371 210.626 27.5699 210.602 27.5027C210.567 27.3952 210.478 27.2271 210.336 26.9986C210.655 27.0255 210.933 27.0457 211.169 27.0591C211.405 27.0591 211.606 27.0658 211.771 27.0793C211.96 27.0927 212.114 27.0994 212.232 27.0994C212.362 27.0994 212.551 27.0927 212.799 27.0793C212.999 27.0658 213.271 27.0524 213.613 27.039C213.968 27.0121 214.411 26.9717 214.942 26.918C214.505 27.1599 214.133 27.3952 213.826 27.6237C213.519 27.8388 213.265 28.0337 213.064 28.2084C212.828 28.4101 212.633 28.5983 212.48 28.773C212.326 28.9747 212.137 29.2233 211.913 29.5191C211.712 29.7879 211.464 30.124 211.169 30.5272C210.886 30.9171 210.537 31.4077 210.124 31.9992C210.431 32.6041 210.72 33.1216 210.992 33.5518C211.275 33.9819 211.517 34.3382 211.718 34.6204C211.954 34.9565 212.173 35.2254 212.374 35.427C212.574 35.6286 212.793 35.8303 213.029 36.0319C213.23 36.2066 213.46 36.3948 213.72 36.5965C213.991 36.7847 214.281 36.9527 214.588 37.1006C214.281 37.1274 213.98 37.1476 213.684 37.1611C213.401 37.1611 213.147 37.1745 212.923 37.2014C212.663 37.2283 212.415 37.2484 212.179 37.2619C211.942 37.2888 211.7 37.3089 211.452 37.3224C211.24 37.3358 211.004 37.3492 210.744 37.3627C210.484 37.3761 210.218 37.3829 209.947 37.3829C210.053 37.2619 210.136 37.1476 210.195 37.0401C210.254 36.9325 210.301 36.8384 210.336 36.7578C210.384 36.6637 210.413 36.5763 210.425 36.4957C210.413 36.3881 210.354 36.2134 210.248 35.9714C210.153 35.7563 210.006 35.4606 209.805 35.0842C209.604 34.6944 209.309 34.1701 208.919 33.5114C208.648 33.8341 208.429 34.1164 208.264 34.3583C208.111 34.6003 207.992 34.8019 207.91 34.9632C207.815 35.1514 207.75 35.306 207.715 35.427C207.691 35.548 207.691 35.6824 207.715 35.8303C207.739 35.9512 207.774 36.0991 207.821 36.2739C207.868 36.4352 207.951 36.6032 208.069 36.7779C207.479 36.8183 206.983 36.8384 206.581 36.8384H205.979C205.79 36.8384 205.566 36.8317 205.306 36.8183C205.082 36.8048 204.804 36.7981 204.473 36.7981C204.131 36.7847 203.735 36.7645 203.287 36.7376C203.417 36.6838 203.552 36.6166 203.694 36.536C203.836 36.4553 203.96 36.3814 204.066 36.3142C204.196 36.2335 204.32 36.1462 204.438 36.0521C204.568 35.9311 204.775 35.7026 205.058 35.3665C205.294 35.0842 205.619 34.6877 206.032 34.1768C206.445 33.6526 206.983 32.9536 207.644 32.0798C207.254 31.2733 206.936 30.6348 206.688 30.1643C206.451 29.6804 206.268 29.304 206.138 29.0351C205.985 28.726 205.873 28.5176 205.802 28.4101C205.731 28.3025 205.637 28.1816 205.518 28.0471C205.33 27.832 205.023 27.5766 204.597 27.2809Z" fill="black"/>
<path d="M193.438 24.7002C194.265 24.7271 194.95 24.7472 195.493 24.7607C196.048 24.7607 196.497 24.7607 196.839 24.7607H197.778H203.056C203.08 25.0295 203.098 25.2917 203.11 25.5471C203.133 25.789 203.145 26.0041 203.145 26.1923C203.145 26.4208 203.139 26.6292 203.127 26.8174C203.115 27.0056 203.098 27.2072 203.074 27.4223C203.05 27.6105 203.027 27.8121 203.003 28.0272C202.98 28.2423 202.938 28.4641 202.879 28.6926C202.714 27.9667 202.49 27.4156 202.206 27.0392C201.935 26.6628 201.657 26.3872 201.374 26.2125C201.043 26.0108 200.695 25.9033 200.329 25.8898C199.844 25.9167 199.467 25.9638 199.195 26.031C198.923 26.0982 198.711 26.1923 198.557 26.3133C198.404 26.4343 198.286 26.5754 198.203 26.7367C198.132 26.8846 198.055 27.0526 197.973 27.2408C197.902 27.4021 197.837 27.6508 197.778 27.9869C197.719 28.2691 197.66 28.6523 197.601 29.1362C197.553 29.6201 197.5 30.2452 197.441 31.0114C197.76 30.9038 198.014 30.803 198.203 30.7089C198.404 30.6148 198.563 30.5342 198.681 30.467C198.811 30.3863 198.906 30.3124 198.965 30.2452C199.012 30.1645 199.083 30.0167 199.177 29.8016C199.248 29.6134 199.343 29.358 199.461 29.0354C199.591 28.7127 199.744 28.2691 199.921 27.7046C199.945 28.3229 199.957 28.8404 199.957 29.2572C199.957 29.6604 199.962 29.9898 199.974 30.2452C199.974 30.5409 199.98 30.7761 199.992 30.9509V31.7171C199.992 31.9994 199.992 32.3825 199.992 32.8664C200.004 33.3369 200.022 33.9351 200.045 34.661C199.903 34.1636 199.774 33.7738 199.655 33.4915C199.549 33.1958 199.455 32.974 199.372 32.8261C199.278 32.6514 199.195 32.5304 199.124 32.4632C199.041 32.4363 198.929 32.4094 198.788 32.3825C198.658 32.3691 198.492 32.3623 198.292 32.3623C198.103 32.3623 197.861 32.3959 197.565 32.4632C197.53 33.2025 197.524 33.8007 197.548 34.2577C197.583 34.7013 197.63 35.0441 197.689 35.2861C197.748 35.5683 197.819 35.77 197.902 35.891C198.008 36.0119 198.221 36.1128 198.54 36.1934C198.858 36.2606 199.219 36.2875 199.62 36.2741C200.033 36.2472 200.453 36.1665 200.878 36.0321C201.303 35.8977 201.681 35.6759 202.011 35.3667C202.259 35.1113 202.525 34.7887 202.808 34.3989C203.045 34.0628 203.304 33.6394 203.588 33.1286C203.883 32.6177 204.172 31.9994 204.456 31.2735C204.408 31.8784 204.373 32.3825 204.349 32.7858C204.338 33.1756 204.32 33.4915 204.296 33.7335C204.273 34.0158 204.255 34.2308 204.243 34.3787C204.243 34.54 204.225 34.7685 204.19 35.0643C204.166 35.3197 204.125 35.6692 204.066 36.1128C204.019 36.5429 203.954 37.0941 203.871 37.7662C203.316 37.7796 202.791 37.7931 202.295 37.8065C201.799 37.8065 201.362 37.8132 200.984 37.8267C200.535 37.8401 200.122 37.8536 199.744 37.867C199.354 37.867 198.923 37.8872 198.451 37.9275C198.038 37.9544 197.548 37.9947 196.981 38.0485C196.426 38.1022 195.812 38.1762 195.139 38.2703C195.198 37.3562 195.239 36.4959 195.263 35.6893C195.298 34.8693 195.322 34.1502 195.333 33.5318C195.345 32.8059 195.345 32.1338 195.333 31.5155C195.392 29.9696 195.369 28.7195 195.263 27.7651C195.156 26.8106 195.032 26.199 194.891 25.9302C194.82 25.8361 194.719 25.7218 194.589 25.5874C194.483 25.4799 194.336 25.3522 194.147 25.2043C193.958 25.0564 193.722 24.8884 193.438 24.7002Z" fill="black"/>
<path d="M183.2 35.226C183.531 35.226 183.838 35.1857 184.121 35.105C184.357 35.0378 184.582 34.9303 184.794 34.7824C185.018 34.6211 185.166 34.3859 185.237 34.0767C185.473 34.1305 185.674 34.1775 185.839 34.2178C186.004 34.2447 186.146 34.2716 186.264 34.2985C186.394 34.3388 186.506 34.3657 186.601 34.3791C186.695 34.406 186.807 34.4329 186.937 34.4598C187.055 34.4867 187.197 34.5203 187.362 34.5606C187.54 34.5875 187.746 34.6278 187.982 34.6816C187.805 34.6547 187.622 34.6749 187.433 34.7421C187.256 34.8093 187.085 34.8832 186.92 34.9639C186.731 35.058 186.554 35.1722 186.388 35.3067C186.282 35.3873 186.158 35.5083 186.016 35.6696C185.886 35.8309 185.697 35.9855 185.449 36.1334C185.201 36.2812 184.871 36.4089 184.458 36.5165C184.056 36.6106 183.536 36.6442 182.899 36.6173C182.131 36.5904 181.488 36.4358 180.968 36.1535C180.448 35.8578 180.029 35.5016 179.71 35.0849C179.392 34.6547 179.161 34.1909 179.02 33.6936C178.878 33.1962 178.801 32.7325 178.789 32.3023C178.777 31.8721 178.89 31.4218 179.126 30.9513C179.362 30.4809 179.693 30.0507 180.118 29.6609C180.555 29.271 181.08 28.9551 181.694 28.7132C182.308 28.4578 182.981 28.3301 183.714 28.3301C184.139 28.3301 184.528 28.3906 184.883 28.5116C185.249 28.6191 185.579 28.767 185.875 28.9551C186.182 29.1433 186.447 29.3584 186.672 29.6004C186.896 29.8289 187.085 30.0641 187.239 30.3061C187.392 30.5615 187.522 30.8304 187.628 31.1126C187.723 31.3546 187.799 31.6302 187.858 31.9394C187.918 32.2485 187.935 32.5644 187.912 32.887C187.014 32.9139 186.288 32.9341 185.733 32.9475C185.19 32.961 184.765 32.9677 184.458 32.9677H183.66H183.058C182.846 32.9677 182.568 32.9744 182.226 32.9879C181.883 33.0013 181.464 33.0215 180.968 33.0483C181.027 33.586 181.175 34.0028 181.411 34.2985C181.659 34.5808 181.919 34.7959 182.19 34.9437C182.497 35.105 182.834 35.1991 183.2 35.226ZM181.606 31.5966C181.984 31.6235 182.297 31.6436 182.544 31.6571C182.804 31.6705 183.017 31.6839 183.182 31.6974C183.359 31.7108 183.501 31.7176 183.607 31.7176H184.05C184.345 31.7176 184.894 31.6974 185.697 31.6571C185.662 31.0656 185.55 30.6153 185.361 30.3061C185.184 29.9969 184.995 29.7684 184.794 29.6205C184.558 29.4592 184.298 29.3651 184.015 29.3383C183.247 29.3517 182.674 29.5332 182.297 29.8827C181.93 30.2322 181.7 30.8035 181.606 31.5966Z" fill="black"/>
<path d="M175.477 29.9224C175.441 29.6536 175.412 29.4318 175.388 29.257C175.365 29.0688 175.341 28.921 175.317 28.8134C175.294 28.679 175.276 28.5782 175.264 28.511C175.241 28.4438 175.211 28.3698 175.176 28.2892C175.152 28.222 175.111 28.1413 175.052 28.0472C175.005 27.9531 174.945 27.8456 174.875 27.7246C175.028 27.7784 175.182 27.812 175.335 27.8254C175.5 27.8389 175.654 27.8523 175.796 27.8658C175.949 27.8792 176.109 27.8792 176.274 27.8658C176.439 27.8658 176.628 27.859 176.841 27.8456C177.03 27.8321 177.254 27.8254 177.514 27.8254C177.785 27.812 178.093 27.7918 178.435 27.7649C178.234 27.8187 178.063 27.9128 177.921 28.0472C177.791 28.1682 177.679 28.3026 177.585 28.4505C177.478 28.6118 177.39 28.7866 177.319 28.9747C177.26 29.1495 177.225 29.4856 177.213 29.9829C177.201 30.4669 177.201 31.0449 177.213 31.717C177.225 32.3757 177.236 33.0881 177.248 33.8543C177.272 34.6205 177.284 35.3532 177.284 36.0522C177.295 36.7512 177.295 37.3897 177.284 37.9677C177.272 38.5323 177.242 38.949 177.195 39.2178C177.03 40.0647 176.723 40.7503 176.274 41.2745C175.825 41.8122 175.235 42.1012 174.503 42.1415C173.617 42.1819 172.914 42.0878 172.395 41.8593C171.887 41.6307 171.491 41.3484 171.208 41.0124C170.925 40.6898 170.712 40.3604 170.57 40.0244C170.429 39.6883 170.281 39.4329 170.127 39.2582C169.986 39.1103 169.844 38.9691 169.702 38.8347C169.572 38.7272 169.437 38.6196 169.295 38.5121C169.165 38.4046 169.035 38.3374 168.905 38.3105C169.248 38.3239 169.555 38.3306 169.826 38.3306C170.098 38.3306 170.328 38.3306 170.517 38.3306C170.73 38.3306 170.919 38.3239 171.084 38.3105H171.651H173.263C173.027 38.3911 172.849 38.4785 172.731 38.5726C172.613 38.6801 172.531 38.7877 172.483 38.8952C172.436 39.0162 172.412 39.1372 172.412 39.2582C172.46 39.5808 172.613 39.816 172.873 39.9639C173.133 40.1117 173.487 40.1991 173.936 40.226C174.373 40.2529 174.674 40.2395 174.839 40.1857C175.005 40.1454 175.134 40.0647 175.229 39.9437C175.418 39.6211 175.577 39.2044 175.707 38.6936C175.802 38.2634 175.867 37.7056 175.902 37.02C175.949 36.321 175.896 35.4674 175.743 34.4592C175.365 35.0507 174.928 35.4943 174.432 35.79C173.936 36.0858 173.463 36.3008 173.015 36.4353C172.483 36.5831 171.946 36.6571 171.403 36.6571C169.974 36.5898 168.905 36.2135 168.197 35.5279C167.488 34.8423 167.163 33.9215 167.223 32.7655C167.258 32.1875 167.411 31.6095 167.683 31.0314C167.966 30.4534 168.333 29.9359 168.781 29.4788C169.242 29.0218 169.767 28.6589 170.358 28.39C170.948 28.1212 171.562 28.0069 172.2 28.0472C172.684 28.101 173.139 28.2018 173.564 28.3497C173.93 28.4841 174.29 28.6723 174.644 28.9143C175.01 29.1562 175.288 29.4923 175.477 29.9224ZM169.844 31.9388C169.773 32.463 169.803 32.9537 169.933 33.4107C170.074 33.8678 170.269 34.2643 170.517 34.6004C170.765 34.923 171.043 35.1784 171.35 35.3666C171.657 35.5413 171.946 35.622 172.218 35.6086C172.784 35.5951 173.275 35.3061 173.688 34.7415C174.101 34.1635 174.349 33.3032 174.432 32.1606C174.467 31.596 174.402 31.1121 174.237 30.7088C174.083 30.2921 173.889 29.956 173.652 29.7006C173.416 29.4452 173.168 29.2638 172.908 29.1562C172.649 29.0487 172.442 29.0016 172.288 29.0151C172.076 29.042 171.84 29.1159 171.58 29.2369C171.332 29.3444 171.09 29.5124 170.854 29.741C170.618 29.956 170.405 30.2451 170.216 30.608C170.039 30.9709 169.915 31.4145 169.844 31.9388Z" fill="black"/>
<path d="M158.702 30.3054C158.761 30.2248 158.797 30.0769 158.809 29.8618C158.832 29.6333 158.88 29.3779 158.95 29.0956C159.033 28.8133 159.169 28.5176 159.358 28.2084C159.547 27.8992 159.854 27.6102 160.279 27.3414C160.692 27.0725 161.094 26.9112 161.483 26.8575C161.873 26.8037 162.245 26.8238 162.599 26.9179C162.954 27.012 163.284 27.1599 163.591 27.3615C163.91 27.5632 164.199 27.785 164.459 28.0269C164.636 28.1882 164.778 28.4235 164.884 28.7327C164.991 29.0284 165.073 29.3645 165.132 29.7408C165.191 30.1172 165.233 30.5138 165.256 30.9305C165.292 31.3338 165.315 31.7303 165.327 32.1201C165.339 32.4965 165.345 32.846 165.345 33.1686C165.357 33.4778 165.38 33.7332 165.416 33.9349C165.463 34.2306 165.546 34.486 165.664 34.7011C165.782 34.9027 165.912 35.0775 166.053 35.2253C166.195 35.3598 166.337 35.4673 166.479 35.5479C166.62 35.6286 166.744 35.6891 166.851 35.7294C166.921 35.7697 166.986 35.7966 167.045 35.8101C167.163 35.8638 167.246 35.8638 167.293 35.8101C167.223 35.9983 167.158 36.1596 167.099 36.294C167.039 36.4284 166.992 36.5427 166.957 36.6368C166.91 36.7443 166.868 36.8317 166.833 36.8989C166.797 36.9796 166.756 37.0535 166.709 37.1207C166.673 37.1879 166.626 37.2618 166.567 37.3425C166.508 37.4232 166.449 37.5105 166.39 37.6046C166.236 37.5374 166.089 37.4568 165.947 37.3627C165.817 37.2686 165.699 37.1812 165.593 37.1005C165.463 37.0064 165.345 36.9123 165.239 36.8182C165.132 36.7242 165.032 36.6166 164.937 36.4956C164.855 36.3881 164.766 36.2738 164.672 36.1529C164.589 36.0319 164.518 35.8974 164.459 35.7496C164.388 35.9243 164.217 36.173 163.946 36.4956C163.686 36.8182 163.343 37.114 162.918 37.3828C162.493 37.6382 161.997 37.8197 161.43 37.9272C160.875 38.0348 160.261 37.9608 159.588 37.7054C159.293 37.5979 159.015 37.4433 158.756 37.2417C158.496 37.0266 158.271 36.7712 158.082 36.4755C157.905 36.1797 157.775 35.8437 157.693 35.4673C157.622 35.0775 157.628 34.6473 157.711 34.1768C157.793 33.7063 157.941 33.3098 158.153 32.9872C158.366 32.6646 158.62 32.4024 158.915 32.2008C159.21 31.9992 159.541 31.8446 159.907 31.737C160.273 31.6295 160.651 31.5556 161.041 31.5152C161.348 31.5018 161.655 31.522 161.962 31.5757C162.221 31.6295 162.493 31.7303 162.776 31.8782C163.06 32.0126 163.302 32.221 163.503 32.5032C163.491 31.7908 163.467 31.2262 163.432 30.8095C163.408 30.3794 163.385 30.05 163.361 29.8215C163.314 29.5526 163.272 29.3645 163.237 29.2569C163.178 29.1628 163.113 29.0553 163.042 28.9343C162.983 28.8133 162.906 28.7058 162.812 28.6117C162.717 28.5041 162.599 28.4168 162.458 28.3496C162.316 28.2823 162.151 28.2555 161.962 28.2689C161.761 28.2823 161.602 28.3428 161.483 28.4504C161.365 28.5579 161.271 28.6856 161.2 28.8335C161.141 28.9679 161.106 29.1158 161.094 29.2771C161.082 29.4384 161.088 29.5795 161.111 29.7005C161.135 29.7812 161.17 29.8685 161.218 29.9626C161.265 30.0433 161.33 30.1307 161.413 30.2248C161.495 30.3189 161.607 30.3995 161.749 30.4667C161.478 30.5071 161.235 30.5407 161.023 30.5675C160.81 30.581 160.627 30.6012 160.474 30.628C160.297 30.6549 160.143 30.6751 160.013 30.6885C159.883 30.702 159.73 30.7289 159.553 30.7692C159.399 30.7961 159.21 30.8297 158.986 30.87C158.761 30.9103 158.502 30.9641 158.206 31.0313C158.277 30.9372 158.342 30.8498 158.401 30.7692C158.46 30.6751 158.514 30.5944 158.561 30.5272C158.608 30.4466 158.655 30.3726 158.702 30.3054ZM161.359 32.7049C161.147 32.7183 160.934 32.7788 160.722 32.8864C160.509 32.9805 160.32 33.1216 160.155 33.3098C159.99 33.4845 159.848 33.6929 159.73 33.9349C159.624 34.1634 159.57 34.4188 159.57 34.7011C159.57 34.9834 159.629 35.232 159.748 35.4471C159.877 35.6488 160.043 35.8168 160.243 35.9512C160.456 36.0856 160.68 36.1663 160.917 36.1932C161.165 36.2201 161.407 36.1932 161.643 36.1125C161.867 36.0184 162.08 35.8706 162.281 35.6689C162.481 35.4538 162.652 35.2253 162.794 34.9834C162.936 34.728 163.036 34.4793 163.095 34.2373C163.154 33.9819 163.16 33.7736 163.113 33.6122C163.019 33.2627 162.806 33.0208 162.475 32.8864C162.145 32.7385 161.773 32.678 161.359 32.7049Z" fill="black"/>
<path d="M147.827 29.1968C148.134 29.264 148.399 29.3177 148.624 29.3581C148.86 29.3849 149.061 29.4118 149.226 29.4387C149.415 29.4656 149.58 29.4858 149.722 29.4992C149.864 29.5126 150.029 29.5261 150.218 29.5395C150.537 29.553 150.985 29.553 151.564 29.5395C151.222 29.5126 150.95 29.6135 150.749 29.842C150.56 30.0571 150.419 30.3057 150.324 30.588C150.206 30.9241 150.141 31.3139 150.129 31.7575C150.106 32.349 150.117 32.8867 150.165 33.3706C150.224 33.8411 150.324 34.2444 150.466 34.5804C150.619 34.903 150.82 35.145 151.068 35.3063C151.316 35.4542 151.635 35.4945 152.025 35.4273C152.414 35.3601 152.709 35.2055 152.91 34.9635C153.123 34.7081 153.276 34.3989 153.371 34.036C153.465 33.6596 153.518 33.2362 153.53 32.7657C153.554 32.2952 153.572 31.8046 153.583 31.2938C153.583 30.783 153.577 30.42 153.566 30.2049C153.566 29.9764 153.56 29.8285 153.548 29.7613C153.536 29.6941 153.518 29.6672 153.495 29.6807C153.471 29.6807 153.442 29.6471 153.406 29.5799C153.383 29.5261 153.347 29.4723 153.3 29.4186C153.264 29.3648 153.217 29.3043 153.158 29.2371C153.099 29.1564 153.034 29.0758 152.963 28.9951C153.27 29.0086 153.542 29.022 153.778 29.0354C154.026 29.0354 154.233 29.0422 154.398 29.0556C154.587 29.0691 154.752 29.0825 154.894 29.0959C155.024 29.1094 155.195 29.1295 155.408 29.1564C155.585 29.1833 155.815 29.2102 156.099 29.2371C156.382 29.264 156.719 29.3043 157.108 29.3581C156.837 29.4253 156.618 29.5261 156.453 29.6605C156.288 29.7949 156.158 29.9294 156.063 30.0638C155.957 30.2117 155.88 30.373 155.833 30.5477C155.797 30.7762 155.797 31.1257 155.833 31.5962C155.857 32.0129 155.916 32.5842 156.01 33.3101C156.105 34.036 156.252 34.9904 156.453 36.1733L155.054 37.121L154.77 34.4393C154.428 35.098 154.062 35.6088 153.672 35.9717C153.294 36.3212 152.94 36.5766 152.609 36.7379C152.219 36.9261 151.842 37.0337 151.475 37.0605C150.991 37.0605 150.572 37.0269 150.218 36.9597C149.875 36.8791 149.58 36.7782 149.332 36.6573C149.084 36.5363 148.883 36.4019 148.73 36.254C148.588 36.0927 148.482 35.9314 148.411 35.7701C148.246 35.434 148.157 35.0039 148.145 34.4796C148.134 33.9419 148.151 33.4109 148.199 32.8867C148.246 32.349 148.299 31.8583 148.358 31.4147C148.417 30.9711 148.435 30.6687 148.411 30.5074C148.387 30.3864 148.352 30.252 148.305 30.1041C148.258 29.9831 148.199 29.8487 148.128 29.7008C148.057 29.5395 147.956 29.3715 147.827 29.1968Z" fill="black"/>
<path d="M144.62 29.9224C144.585 29.6536 144.555 29.4318 144.532 29.257C144.508 29.0688 144.485 28.921 144.461 28.8134C144.437 28.679 144.42 28.5782 144.408 28.511C144.384 28.4438 144.355 28.3698 144.319 28.2892C144.296 28.222 144.254 28.1413 144.195 28.0472C144.148 27.9531 144.089 27.8456 144.018 27.7246C144.172 27.7784 144.325 27.812 144.479 27.8254C144.644 27.8389 144.798 27.8523 144.939 27.8658C145.093 27.8792 145.252 27.8792 145.418 27.8658C145.583 27.8658 145.772 27.859 145.984 27.8456C146.173 27.8321 146.398 27.8254 146.657 27.8254C146.929 27.812 147.236 27.7918 147.579 27.7649C147.378 27.8187 147.207 27.9128 147.065 28.0472C146.935 28.1682 146.823 28.3026 146.728 28.4505C146.622 28.6118 146.533 28.7866 146.463 28.9747C146.404 29.1495 146.368 29.4856 146.356 29.9829C146.345 30.4669 146.345 31.0449 146.356 31.717C146.368 32.3757 146.38 33.0881 146.392 33.8543C146.415 34.6205 146.427 35.3532 146.427 36.0522C146.439 36.7512 146.439 37.3897 146.427 37.9677C146.415 38.5323 146.386 38.949 146.339 39.2178C146.173 40.0647 145.866 40.7503 145.418 41.2745C144.969 41.8122 144.378 42.1012 143.646 42.1415C142.761 42.1819 142.058 42.0878 141.538 41.8593C141.031 41.6307 140.635 41.3484 140.352 41.0124C140.068 40.6898 139.856 40.3604 139.714 40.0244C139.572 39.6883 139.425 39.4329 139.271 39.2582C139.129 39.1103 138.988 38.9691 138.846 38.8347C138.716 38.7272 138.58 38.6196 138.439 38.5121C138.309 38.4046 138.179 38.3374 138.049 38.3105C138.391 38.3239 138.698 38.3306 138.97 38.3306C139.242 38.3306 139.472 38.3306 139.661 38.3306C139.873 38.3306 140.062 38.3239 140.228 38.3105H140.794H142.406C142.17 38.3911 141.993 38.4785 141.875 38.5726C141.757 38.6801 141.674 38.7877 141.627 38.8952C141.58 39.0162 141.556 39.1372 141.556 39.2582C141.603 39.5808 141.757 39.816 142.017 39.9639C142.276 40.1117 142.631 40.1991 143.079 40.226C143.516 40.2529 143.817 40.2395 143.983 40.1857C144.148 40.1454 144.278 40.0647 144.372 39.9437C144.561 39.6211 144.721 39.2044 144.851 38.6936C144.945 38.2634 145.01 37.7056 145.046 37.02C145.093 36.321 145.04 35.4674 144.886 34.4592C144.508 35.0507 144.071 35.4943 143.575 35.79C143.079 36.0858 142.607 36.3008 142.158 36.4353C141.627 36.5831 141.09 36.6571 140.546 36.6571C139.118 36.5898 138.049 36.2135 137.34 35.5279C136.632 34.8423 136.307 33.9215 136.366 32.7655C136.401 32.1875 136.555 31.6095 136.827 31.0314C137.11 30.4534 137.476 29.9359 137.925 29.4788C138.385 29.0218 138.911 28.6589 139.501 28.39C140.092 28.1212 140.706 28.0069 141.343 28.0472C141.828 28.101 142.282 28.2018 142.707 28.3497C143.073 28.4841 143.434 28.6723 143.788 28.9143C144.154 29.1562 144.431 29.4923 144.62 29.9224ZM138.988 31.9388C138.917 32.463 138.946 32.9537 139.076 33.4107C139.218 33.8678 139.413 34.2643 139.661 34.6004C139.909 34.923 140.186 35.1784 140.493 35.3666C140.8 35.5413 141.09 35.622 141.361 35.6086C141.928 35.5951 142.418 35.3061 142.831 34.7415C143.245 34.1635 143.493 33.3032 143.575 32.1606C143.611 31.596 143.546 31.1121 143.381 30.7088C143.227 30.2921 143.032 29.956 142.796 29.7006C142.56 29.4452 142.312 29.2638 142.052 29.1562C141.792 29.0487 141.586 29.0016 141.432 29.0151C141.219 29.042 140.983 29.1159 140.724 29.2369C140.476 29.3444 140.233 29.5124 139.997 29.741C139.761 29.956 139.549 30.2451 139.36 30.608C139.182 30.9709 139.058 31.4145 138.988 31.9388Z" fill="black"/>
<path d="M126.181 36.2535C126.264 35.8099 126.323 35.4201 126.358 35.0841C126.405 34.7346 126.441 34.4455 126.464 34.217C126.488 33.9482 126.5 33.7197 126.5 33.5315C126.488 33.3029 126.476 33.0341 126.464 32.7249C126.464 32.4023 126.453 32.0864 126.429 31.7772C126.417 31.4546 126.399 31.1723 126.376 30.9304C126.352 30.675 126.323 30.4935 126.287 30.386C126.24 30.2784 126.175 30.1642 126.092 30.0432C125.927 29.8147 125.685 29.5929 125.366 29.3778C125.638 29.3106 125.868 29.2568 126.057 29.2165C126.258 29.1627 126.423 29.1156 126.553 29.0753C126.695 29.0216 126.819 28.9745 126.925 28.9342C127.019 28.8938 127.132 28.8535 127.262 28.8132C127.368 28.7863 127.498 28.7527 127.651 28.7124C127.805 28.6721 127.982 28.625 128.183 28.5712L128.129 30.4061C128.507 29.8953 128.891 29.5122 129.281 29.2568C129.671 29.0014 130.037 28.8199 130.379 28.7124C130.769 28.578 131.153 28.5107 131.53 28.5107C132.003 28.5376 132.44 28.625 132.841 28.7729C133.254 28.9207 133.609 29.0955 133.904 29.2971C134.211 29.4853 134.459 29.6869 134.648 29.902C134.837 30.1171 134.949 30.3053 134.984 30.4666C135.126 30.9909 135.162 31.4748 135.091 31.9184C135.02 32.3485 134.925 32.772 134.807 33.1887C134.701 33.592 134.607 33.9952 134.524 34.3985C134.453 34.8018 134.483 35.2386 134.613 35.7091C134.66 35.8301 134.707 35.9511 134.754 36.0721C134.801 36.1796 134.86 36.2872 134.931 36.3947C135.002 36.5022 135.085 36.5896 135.179 36.6568C135.049 36.6434 134.92 36.6367 134.79 36.6367C134.66 36.6232 134.542 36.6098 134.435 36.5963C134.305 36.5829 134.187 36.5694 134.081 36.556C133.963 36.5426 133.804 36.5358 133.603 36.5358C133.26 36.5358 132.729 36.556 132.009 36.5963C132.115 36.314 132.198 36.0788 132.257 35.8906C132.328 35.689 132.387 35.5277 132.434 35.4067C132.481 35.2588 132.516 35.1445 132.54 35.0639C132.682 34.6741 132.764 34.2305 132.788 33.7331C132.823 33.2357 132.794 32.7316 132.699 32.2208C132.664 32.0461 132.605 31.8377 132.522 31.5958C132.44 31.3538 132.328 31.1186 132.186 30.89C132.056 30.6615 131.896 30.4666 131.708 30.3053C131.53 30.144 131.324 30.0499 131.088 30.023C130.851 29.9961 130.586 30.0633 130.29 30.2246C130.007 30.386 129.7 30.6817 129.369 31.1118C129.121 31.4748 128.927 31.9184 128.785 32.4426C128.655 32.8862 128.566 33.4441 128.519 34.1162C128.472 34.7749 128.543 35.5478 128.732 36.435C128.566 36.4081 128.413 36.3947 128.271 36.3947C128.129 36.3812 128.011 36.3678 127.917 36.3544C127.799 36.3409 127.693 36.3275 127.598 36.314C127.492 36.314 127.374 36.3073 127.244 36.2939C127.126 36.2939 126.978 36.2939 126.801 36.2939C126.624 36.2804 126.417 36.267 126.181 36.2535Z" fill="black"/>
<path d="M117.218 30.3054C117.277 30.2248 117.313 30.0769 117.324 29.8618C117.348 29.6333 117.395 29.3779 117.466 29.0956C117.549 28.8133 117.685 28.5176 117.873 28.2084C118.062 27.8992 118.369 27.6102 118.795 27.3414C119.208 27.0725 119.609 26.9112 119.999 26.8575C120.389 26.8037 120.761 26.8238 121.115 26.9179C121.469 27.012 121.8 27.1599 122.107 27.3615C122.426 27.5632 122.715 27.785 122.975 28.0269C123.152 28.1882 123.294 28.4235 123.4 28.7327C123.506 29.0284 123.589 29.3645 123.648 29.7408C123.707 30.1172 123.748 30.5138 123.772 30.9305C123.807 31.3338 123.831 31.7303 123.843 32.1201C123.855 32.4965 123.861 32.846 123.861 33.1686C123.872 33.4778 123.896 33.7332 123.931 33.9349C123.979 34.2306 124.061 34.486 124.179 34.7011C124.297 34.9027 124.427 35.0775 124.569 35.2253C124.711 35.3598 124.852 35.4673 124.994 35.5479C125.136 35.6286 125.26 35.6891 125.366 35.7294C125.437 35.7697 125.502 35.7966 125.561 35.8101C125.679 35.8638 125.762 35.8638 125.809 35.8101C125.738 35.9983 125.673 36.1596 125.614 36.294C125.555 36.4284 125.508 36.5427 125.472 36.6368C125.425 36.7443 125.384 36.8317 125.348 36.8989C125.313 36.9796 125.272 37.0535 125.224 37.1207C125.189 37.1879 125.142 37.2618 125.083 37.3425C125.024 37.4232 124.965 37.5105 124.906 37.6046C124.752 37.5374 124.604 37.4568 124.463 37.3627C124.333 37.2686 124.215 37.1812 124.109 37.1005C123.979 37.0064 123.861 36.9123 123.754 36.8182C123.648 36.7242 123.548 36.6166 123.453 36.4956C123.37 36.3881 123.282 36.2738 123.187 36.1529C123.105 36.0319 123.034 35.8974 122.975 35.7496C122.904 35.9243 122.733 36.173 122.461 36.4956C122.201 36.8182 121.859 37.114 121.434 37.3828C121.009 37.6382 120.513 37.8197 119.946 37.9272C119.391 38.0348 118.777 37.9608 118.104 37.7054C117.809 37.5979 117.531 37.4433 117.271 37.2417C117.011 37.0266 116.787 36.7712 116.598 36.4755C116.421 36.1797 116.291 35.8437 116.208 35.4673C116.138 35.0775 116.143 34.6473 116.226 34.1768C116.309 33.7063 116.456 33.3098 116.669 32.9872C116.882 32.6646 117.135 32.4024 117.431 32.2008C117.726 31.9992 118.056 31.8446 118.423 31.737C118.789 31.6295 119.167 31.5556 119.556 31.5152C119.863 31.5018 120.17 31.522 120.477 31.5757C120.737 31.6295 121.009 31.7303 121.292 31.8782C121.576 32.0126 121.818 32.221 122.018 32.5032C122.007 31.7908 121.983 31.2262 121.947 30.8095C121.924 30.3794 121.9 30.05 121.877 29.8215C121.829 29.5526 121.788 29.3645 121.753 29.2569C121.694 29.1628 121.629 29.0553 121.558 28.9343C121.499 28.8133 121.422 28.7058 121.328 28.6117C121.233 28.5041 121.115 28.4168 120.973 28.3496C120.832 28.2823 120.666 28.2555 120.477 28.2689C120.277 28.2823 120.117 28.3428 119.999 28.4504C119.881 28.5579 119.786 28.6856 119.716 28.8335C119.657 28.9679 119.621 29.1158 119.609 29.2771C119.598 29.4384 119.603 29.5795 119.627 29.7005C119.651 29.7812 119.686 29.8685 119.733 29.9626C119.781 30.0433 119.846 30.1307 119.928 30.2248C120.011 30.3189 120.123 30.3995 120.265 30.4667C119.993 30.5071 119.751 30.5407 119.539 30.5675C119.326 30.581 119.143 30.6012 118.989 30.628C118.812 30.6549 118.659 30.6751 118.529 30.6885C118.399 30.702 118.245 30.7289 118.068 30.7692C117.915 30.7961 117.726 30.8297 117.501 30.87C117.277 30.9103 117.017 30.9641 116.722 31.0313C116.793 30.9372 116.858 30.8498 116.917 30.7692C116.976 30.6751 117.029 30.5944 117.076 30.5272C117.124 30.4466 117.171 30.3726 117.218 30.3054ZM119.875 32.7049C119.662 32.7183 119.45 32.7788 119.237 32.8864C119.025 32.9805 118.836 33.1216 118.671 33.3098C118.505 33.4845 118.364 33.6929 118.245 33.9349C118.139 34.1634 118.086 34.4188 118.086 34.7011C118.086 34.9834 118.145 35.232 118.263 35.4471C118.393 35.6488 118.558 35.8168 118.759 35.9512C118.972 36.0856 119.196 36.1663 119.432 36.1932C119.68 36.2201 119.922 36.1932 120.158 36.1125C120.383 36.0184 120.595 35.8706 120.796 35.6689C120.997 35.4538 121.168 35.2253 121.31 34.9834C121.452 34.728 121.552 34.4793 121.611 34.2373C121.67 33.9819 121.676 33.7736 121.629 33.6122C121.534 33.2627 121.322 33.0208 120.991 32.8864C120.66 32.7385 120.288 32.678 119.875 32.7049Z" fill="black"/>
<path d="M105.882 23.8534C106.224 23.9206 106.525 23.9677 106.785 23.9945C107.057 24.0214 107.281 24.0416 107.458 24.055C107.671 24.0685 107.854 24.0752 108.007 24.0752C108.161 24.0752 108.379 24.0618 108.663 24.0349C108.899 24.008 109.206 23.9744 109.584 23.9341C109.973 23.8937 110.452 23.8265 111.018 23.7324C110.853 23.7862 110.7 23.9408 110.558 24.1962C110.428 24.4381 110.31 24.7003 110.204 24.9826C110.074 25.3186 109.962 25.6883 109.867 26.0916C109.784 26.4545 109.678 26.9519 109.548 27.5837C109.43 28.2155 109.312 28.901 109.194 29.6403C109.088 30.3797 109.005 31.1324 108.946 31.8987C108.887 32.6514 108.875 33.3437 108.911 33.9755C108.958 34.6073 109.07 35.1315 109.247 35.5483C109.424 35.9515 109.696 36.1666 110.062 36.1935C110.617 36.2473 111.078 36.254 111.444 36.2137C111.821 36.1599 112.129 36.086 112.365 35.9919C112.601 35.8978 112.784 35.7902 112.914 35.6692C113.044 35.5348 113.144 35.4071 113.215 35.2861C113.404 34.977 113.599 34.5804 113.799 34.0965C114 33.6126 114.177 33.1488 114.331 32.7052C114.496 32.2616 114.632 31.8852 114.738 31.576C114.845 31.2669 114.898 31.119 114.898 31.1324C114.898 31.1593 114.892 31.3139 114.88 31.5962C114.88 31.8651 114.874 32.1944 114.862 32.5842C114.862 32.9606 114.856 33.3572 114.845 33.7739C114.845 34.1906 114.839 34.5468 114.827 34.8425C114.815 35.0845 114.803 35.3533 114.791 35.6491C114.78 35.9045 114.768 36.2069 114.756 36.5564C114.756 36.9059 114.744 37.289 114.721 37.7058C114.225 37.6654 113.752 37.6385 113.303 37.6251C112.855 37.6117 112.459 37.6049 112.117 37.6049C111.715 37.6049 111.343 37.6117 111.001 37.6251C110.635 37.6385 110.21 37.6587 109.725 37.6856C109.312 37.7125 108.798 37.7461 108.184 37.7864C107.57 37.8133 106.862 37.8536 106.059 37.9074C106.153 37.7192 106.23 37.5445 106.289 37.3831C106.36 37.2218 106.413 37.0874 106.448 36.9799C106.496 36.8455 106.525 36.7312 106.537 36.6371C106.608 36.2069 106.667 35.6625 106.714 35.0038C106.761 34.3317 106.797 33.6193 106.82 32.8665C106.856 32.1137 106.874 31.3475 106.874 30.5679C106.885 29.7748 106.885 29.0422 106.874 28.37C106.862 27.6979 106.838 27.1132 106.803 26.6158C106.779 26.1184 106.744 25.7757 106.696 25.5875C106.637 25.3724 106.567 25.1573 106.484 24.9422C106.413 24.754 106.324 24.5658 106.218 24.3777C106.124 24.176 106.012 24.0013 105.882 23.8534Z" fill="black"/>
<path d="M88.7529 28.1689C88.9891 28.2092 89.2017 28.2428 89.3906 28.2697C89.5677 28.2831 89.7272 28.2966 89.8689 28.31C90.0224 28.3235 90.17 28.3302 90.3117 28.3302C90.4416 28.3302 90.6069 28.3235 90.8077 28.31C90.973 28.2966 91.1855 28.2831 91.4453 28.2697C91.7169 28.2428 92.0358 28.2092 92.4019 28.1689C92.3782 28.2227 92.331 28.3907 92.2601 28.673C92.1893 28.9418 92.1184 29.2779 92.0476 29.6812C91.9767 30.071 91.9118 30.5079 91.8527 30.9918C91.8055 31.4623 91.7819 31.9328 91.7819 32.4032C91.7937 32.8603 91.8468 33.2972 91.9413 33.7139C92.0358 34.1171 92.1893 34.4465 92.4019 34.7019C92.8506 35.2261 93.2462 35.542 93.5886 35.6496C93.9429 35.7571 94.2499 35.7437 94.5097 35.6092C94.7695 35.4748 94.9821 35.2732 95.1474 35.0043C95.3127 34.7355 95.4308 34.4868 95.5017 34.2583C95.6788 33.6399 95.7851 32.988 95.8205 32.3024C95.8441 31.711 95.8028 31.0523 95.6965 30.3264C95.5902 29.6005 95.3363 28.8612 94.9348 28.1084C95.2419 28.1353 95.5076 28.1554 95.7319 28.1689C95.9563 28.1823 96.1512 28.1958 96.3165 28.2092C96.5054 28.2227 96.6707 28.2361 96.8124 28.2495C96.9423 28.263 97.0959 28.263 97.273 28.2495C97.4265 28.2495 97.6095 28.2428 97.8221 28.2294C98.0465 28.2025 98.2945 28.1756 98.5661 28.1487C98.6133 29.4661 98.6546 30.6423 98.69 31.6773C98.7255 32.699 98.7491 33.6063 98.7609 34.3994C98.7845 35.1791 98.7963 35.8579 98.7963 36.4359C98.7963 37.0005 98.7963 37.4777 98.7963 37.8676C98.7845 38.7951 98.7491 39.4067 98.69 39.7024C98.5956 40.1192 98.4243 40.5359 98.1764 40.9526C97.9402 41.3693 97.6391 41.739 97.273 42.0616C96.9069 42.3976 96.4818 42.653 95.9976 42.8278C95.5253 43.016 95.0057 43.0832 94.4389 43.0294C93.8839 42.9757 93.441 42.8883 93.1104 42.7673C92.7915 42.6598 92.5377 42.5321 92.3487 42.3842C92.1716 42.2363 92.0417 42.0817 91.959 41.9204C91.8882 41.7591 91.835 41.5911 91.7996 41.4163C91.7642 41.255 91.7288 41.1004 91.6933 40.9526C91.6579 40.8047 91.587 40.677 91.4808 40.5695C91.3509 40.4485 91.2151 40.3275 91.0734 40.2065C90.9435 40.099 90.8018 39.9915 90.6482 39.8839C90.5065 39.7764 90.3648 39.689 90.2231 39.6218L93.996 39.3798C93.8898 39.5411 93.813 39.689 93.7658 39.8234C93.7185 39.9578 93.689 40.0721 93.6772 40.1662C93.6654 40.2872 93.6713 40.388 93.6949 40.4687C93.7422 40.63 93.8248 40.8047 93.9429 40.9929C94.0728 41.1945 94.2381 41.3491 94.4389 41.4567C94.6396 41.5776 94.8758 41.618 95.1474 41.5776C95.4308 41.5373 95.7497 41.3693 96.1039 41.0736C96.3991 40.8182 96.6471 40.4082 96.8479 39.8436C97.0132 39.3597 97.1431 38.6808 97.2376 37.8071C97.332 36.9333 97.3143 35.784 97.1844 34.3591C96.9719 35.1925 96.6825 35.831 96.3165 36.2746C95.9504 36.7182 95.5843 37.0409 95.2183 37.2425C94.7931 37.4844 94.3503 37.6122 93.8898 37.6256C93.2757 37.5987 92.7502 37.5113 92.3133 37.3635C91.8764 37.2022 91.5162 36.9871 91.2328 36.7182C90.9494 36.4494 90.725 36.1335 90.5597 35.7705C90.4062 35.3942 90.294 34.9774 90.2231 34.5204C90.1523 34.0634 90.1168 33.6063 90.1168 33.1493C90.1168 32.6788 90.1168 32.2419 90.1168 31.8387C90.1287 31.4354 90.1346 31.0724 90.1346 30.7498C90.1346 30.4138 90.105 30.1449 90.046 29.9433C89.9751 29.7416 89.8807 29.54 89.7626 29.3384C89.6681 29.1636 89.5382 28.9754 89.3729 28.7738C89.1958 28.5587 88.9891 28.3571 88.7529 28.1689Z" fill="black"/>
<path d="M75.0075 24.0143C75.3854 24.0277 75.716 24.0345 75.9994 24.0345C76.2828 24.021 76.5131 24.0143 76.6902 24.0143H77.2039C77.3338 24.0009 77.4932 23.9941 77.6822 23.9941C77.8475 23.9941 78.0483 23.9941 78.2844 23.9941C78.5206 23.9941 78.7922 24.0009 79.0992 24.0143C79.1937 24.3907 79.3 24.7604 79.4181 25.1233C79.548 25.4728 79.6602 25.7887 79.7546 26.071C79.8727 26.407 79.9908 26.7229 80.1089 27.0187C80.227 27.3144 80.3687 27.6706 80.534 28.0873C80.6757 28.4368 80.847 28.867 81.0477 29.3778C81.2485 29.8752 81.4846 30.4465 81.7562 31.0917C81.8861 30.675 82.0042 30.2919 82.1105 29.9424C82.2286 29.5929 82.329 29.2904 82.4116 29.035C82.5061 28.7393 82.5828 28.4704 82.6419 28.2285C82.7009 27.9865 82.7659 27.6908 82.8367 27.3413C82.8958 27.0456 82.9607 26.6893 83.0316 26.2726C83.1142 25.8559 83.1969 25.372 83.2796 24.8208C83.622 24.8208 83.9291 24.8208 84.2007 24.8208C84.4723 24.8208 84.7084 24.8141 84.9092 24.8007C85.1335 24.8007 85.3343 24.794 85.5114 24.7805C85.7004 24.7805 85.9543 24.7671 86.2731 24.7402C86.5447 24.7133 86.9049 24.6931 87.3536 24.6797C87.8142 24.6528 88.381 24.6192 89.0541 24.5789C88.8061 24.7805 88.6053 24.9822 88.4518 25.1838C88.3101 25.372 88.1979 25.54 88.1153 25.6879C88.0208 25.8626 87.9618 26.0307 87.9381 26.192C87.9145 26.3264 87.8909 26.6356 87.8673 27.1195C87.8555 27.6034 87.8378 28.1814 87.8142 28.8536C87.8023 29.5122 87.7905 30.218 87.7787 30.9707C87.7787 31.7235 87.7846 32.4359 87.7964 33.1081C87.8082 33.7802 87.826 34.3649 87.8496 34.8623C87.885 35.3462 87.9322 35.6554 87.9913 35.7898C88.0739 35.9511 88.1861 36.1393 88.3278 36.3544C88.4577 36.5426 88.6231 36.7577 88.8238 36.9996C89.0364 37.2416 89.3139 37.5104 89.6563 37.8062C89.1131 37.8331 88.6585 37.8532 88.2924 37.8667C87.9381 37.8801 87.6429 37.8935 87.4067 37.907C87.1351 37.9204 86.9167 37.9272 86.7514 37.9272C86.5742 37.9272 86.3321 37.9339 86.0251 37.9473C85.7535 37.9608 85.3933 37.9809 84.9446 38.0078C84.4959 38.0212 83.9172 38.0481 83.2087 38.0885C83.374 37.8734 83.5276 37.6583 83.6693 37.4432C83.811 37.2281 83.9291 37.0332 84.0235 36.8585C84.1416 36.6568 84.242 36.4619 84.3246 36.2737C84.4073 36.0183 84.4723 35.5546 84.5195 34.8825C84.5667 34.3044 84.6022 33.4777 84.6258 32.4023C84.6494 31.3135 84.6494 29.855 84.6258 28.0269C84.4014 28.4436 84.2007 28.8603 84.0235 29.277C83.8582 29.6803 83.7106 30.0499 83.5807 30.386C83.439 30.7758 83.3091 31.1522 83.191 31.5151C83.0729 31.8915 82.9489 32.3082 82.819 32.7653C82.7009 33.1551 82.5592 33.6189 82.3939 34.1566C82.2404 34.6943 82.0633 35.2857 81.8625 35.931L81.1894 35.9713C81.0949 35.4336 81.0005 34.9497 80.906 34.5195C80.8115 34.0759 80.7171 33.6995 80.6226 33.3904C80.5163 33.0274 80.41 32.7048 80.3037 32.4225C80.1857 32.1402 80.0558 31.8243 79.9141 31.4748C79.7842 31.1791 79.6247 30.8296 79.4358 30.4263C79.2587 30.023 79.052 29.5727 78.8158 29.0754C78.6977 30.4465 78.6269 31.5622 78.6033 32.4225C78.5797 33.2694 78.5797 33.928 78.6033 34.3985C78.6269 34.9631 78.6623 35.3731 78.7096 35.6285C78.7804 35.857 78.8926 36.1124 79.0461 36.3947C79.176 36.6367 79.3531 36.9257 79.5775 37.2618C79.8137 37.5844 80.1148 37.9473 80.4809 38.3506C80.2211 38.3506 79.9495 38.3506 79.6661 38.3506C79.3827 38.3506 79.1229 38.3573 78.8867 38.3707C78.6033 38.3842 78.3258 38.3909 78.0542 38.3909C77.7708 38.4044 77.4401 38.4245 77.0622 38.4514C76.7316 38.4783 76.336 38.5052 75.8754 38.5321C75.4149 38.5589 74.8835 38.606 74.2812 38.6732C74.541 38.485 74.7536 38.3035 74.9189 38.1288C75.0842 37.9406 75.2141 37.7726 75.3086 37.6247C75.4267 37.4499 75.5153 37.2752 75.5743 37.1004C75.6097 36.9929 75.6393 36.7577 75.6629 36.3947C75.6983 36.0318 75.7278 35.5882 75.7514 35.0639C75.7869 34.5397 75.8105 33.9549 75.8223 33.3097C75.8459 32.6645 75.8636 32.0125 75.8754 31.3538C75.8991 30.6817 75.9168 30.0298 75.9286 29.398C75.9404 28.7527 75.9463 28.1747 75.9463 27.6639C75.9581 27.1397 75.964 26.7028 75.964 26.3533C75.964 26.0038 75.964 25.782 75.964 25.6879C75.9286 25.4862 75.8754 25.2846 75.8046 25.083C75.7455 24.9082 75.6511 24.7267 75.5212 24.5386C75.3913 24.3504 75.2201 24.1756 75.0075 24.0143Z" fill="black"/>
<path d="M46.5947 26.6475C47.3004 26.6655 47.885 26.6789 48.3488 26.6879C48.8225 26.6879 49.2056 26.6879 49.498 26.6879H50.2994H54.8054C54.8256 26.8679 54.8407 27.0433 54.8508 27.2143C54.8709 27.3762 54.881 27.5202 54.881 27.6461C54.881 27.7991 54.876 27.9385 54.8659 28.0645C54.8558 28.1904 54.8407 28.3254 54.8205 28.4693C54.8004 28.5953 54.7802 28.7302 54.76 28.8742C54.7399 29.0181 54.7046 29.1666 54.6542 29.3195C54.5131 28.8337 54.3215 28.4648 54.0796 28.2129C53.8478 27.961 53.6109 27.7766 53.3689 27.6596C53.0867 27.5247 52.7893 27.4527 52.4768 27.4437C52.0635 27.4617 51.7409 27.4932 51.509 27.5381C51.2772 27.5831 51.0957 27.6461 50.9647 27.7271C50.8336 27.8081 50.7328 27.9025 50.6623 28.0105C50.6018 28.1094 50.5363 28.2219 50.4657 28.3479C50.4052 28.4558 50.3498 28.6223 50.2994 28.8472C50.249 29.0361 50.1986 29.2925 50.1482 29.6164C50.1078 29.9403 50.0625 30.3587 50.0121 30.8715C50.2842 30.7995 50.501 30.732 50.6623 30.6691C50.8336 30.6061 50.9697 30.5521 51.0705 30.5071C51.1814 30.4531 51.2621 30.4036 51.3125 30.3587C51.3528 30.3047 51.4133 30.2057 51.4939 30.0618C51.5544 29.9358 51.635 29.7649 51.7359 29.5489C51.8467 29.333 51.9778 29.0361 52.129 28.6583C52.1492 29.0721 52.1592 29.4185 52.1592 29.6974C52.1592 29.9673 52.1643 30.1877 52.1744 30.3587C52.1744 30.5566 52.1794 30.714 52.1895 30.831V31.3438C52.1895 31.5328 52.1895 31.7892 52.1895 32.113C52.1996 32.4279 52.2147 32.8283 52.2348 33.3141C52.1139 32.9812 52.003 32.7203 51.9022 32.5314C51.8115 32.3335 51.7308 32.185 51.6603 32.0861C51.5796 31.9691 51.509 31.8881 51.4486 31.8431C51.378 31.8251 51.2822 31.8072 51.1613 31.7892C51.0504 31.7802 50.9092 31.7757 50.7379 31.7757C50.5766 31.7757 50.3699 31.7982 50.1179 31.8431C50.0877 32.338 50.0826 32.7383 50.1028 33.0442C50.133 33.3411 50.1734 33.5705 50.2238 33.7325C50.2742 33.9214 50.3346 34.0564 50.4052 34.1373C50.4959 34.2183 50.6774 34.2858 50.9496 34.3398C51.2217 34.3848 51.5292 34.4027 51.8719 34.3938C52.2248 34.3758 52.5826 34.3218 52.9455 34.2318C53.3084 34.1418 53.631 33.9934 53.9133 33.7865C54.125 33.6155 54.3518 33.3996 54.5937 33.1387C54.7953 32.9138 55.0171 32.6304 55.259 32.2885C55.5111 31.9466 55.758 31.5328 56 31.0469C55.9596 31.4518 55.9294 31.7892 55.9092 32.0591C55.8992 32.32 55.884 32.5314 55.8639 32.6933C55.8437 32.8823 55.8286 33.0262 55.8185 33.1252C55.8185 33.2332 55.8034 33.3861 55.7732 33.584C55.753 33.755 55.7177 33.9889 55.6673 34.2858C55.627 34.5737 55.5715 34.9426 55.501 35.3924C55.0272 35.4014 54.5786 35.4104 54.1552 35.4194C53.7318 35.4194 53.3588 35.4239 53.0363 35.4329C52.6532 35.4419 52.3004 35.4509 51.9778 35.4599C51.6451 35.4599 51.2772 35.4734 50.874 35.5004C50.5211 35.5184 50.1028 35.5453 49.6189 35.5813C49.1451 35.6173 48.6209 35.6668 48.0463 35.7298C48.0967 35.118 48.132 34.5422 48.1522 34.0024C48.1824 33.4536 48.2026 32.9722 48.2127 32.5584C48.2228 32.0726 48.2228 31.6227 48.2127 31.2089C48.2631 30.1742 48.2429 29.3375 48.1522 28.6987C48.0615 28.06 47.9556 27.6506 47.8346 27.4707C47.7742 27.4077 47.6885 27.3312 47.5776 27.2413C47.4869 27.1693 47.3609 27.0838 47.1996 26.9848C47.0383 26.8859 46.8367 26.7734 46.5947 26.6475Z" fill="black"/>
<path d="M39.2006 26.081C39.493 26.126 39.75 26.1574 39.9718 26.1754C40.2036 26.1934 40.3952 26.2069 40.5464 26.2159C40.7278 26.2249 40.8841 26.2294 41.0151 26.2294C41.1462 26.2294 41.3327 26.2204 41.5746 26.2024C41.7762 26.1844 42.0383 26.1619 42.3609 26.135C42.6936 26.108 43.1018 26.063 43.5857 26C43.4446 26.036 43.3135 26.1395 43.1926 26.3104C43.0817 26.4723 42.9809 26.6478 42.8901 26.8367C42.7793 27.0616 42.6835 27.309 42.6028 27.5789C42.5323 27.8219 42.4416 28.1547 42.3307 28.5776C42.2299 29.0004 42.1291 29.4593 42.0282 29.9541C41.9375 30.4489 41.867 30.9528 41.8166 31.4656C41.7661 31.9694 41.7561 32.4327 41.7863 32.8556C41.8266 33.2785 41.9224 33.6293 42.0736 33.9082C42.2248 34.1781 42.4567 34.3221 42.7692 34.3401C43.243 34.3761 43.6361 34.3806 43.9486 34.3536C44.2712 34.3176 44.5333 34.2681 44.7349 34.2051C44.9365 34.1422 45.0928 34.0702 45.2036 33.9892C45.3145 33.8992 45.4002 33.8138 45.4607 33.7328C45.622 33.5259 45.7883 33.2605 45.9597 32.9366C46.1311 32.6127 46.2823 32.3023 46.4133 32.0054C46.5545 31.7085 46.6704 31.4566 46.7611 31.2497C46.8518 31.0427 46.8972 30.9438 46.8972 30.9528C46.8972 30.9708 46.8922 31.0742 46.8821 31.2632C46.8821 31.4431 46.877 31.6635 46.867 31.9244C46.867 32.1763 46.8619 32.4417 46.8518 32.7206C46.8518 32.9996 46.8468 33.238 46.8367 33.4359C46.8266 33.5978 46.8165 33.7778 46.8065 33.9757C46.7964 34.1466 46.7863 34.3491 46.7762 34.583C46.7762 34.8169 46.7661 35.0733 46.746 35.3522C46.3226 35.3252 45.9194 35.3072 45.5363 35.2982C45.1532 35.2892 44.8155 35.2848 44.5232 35.2848C44.1805 35.2848 43.8629 35.2892 43.5706 35.2982C43.2581 35.3072 42.8952 35.3207 42.4819 35.3387C42.1291 35.3567 41.6905 35.3792 41.1663 35.4062C40.6422 35.4242 40.0373 35.4512 39.3518 35.4872C39.4325 35.3612 39.498 35.2443 39.5484 35.1363C39.6089 35.0283 39.6543 34.9384 39.6845 34.8664C39.7248 34.7764 39.75 34.7 39.7601 34.637C39.8206 34.3491 39.871 33.9847 39.9113 33.5439C39.9516 33.094 39.9819 32.6172 40.002 32.1134C40.0323 31.6095 40.0474 31.0967 40.0474 30.5749C40.0575 30.0441 40.0575 29.5538 40.0474 29.1039C40.0373 28.6541 40.0172 28.2627 39.9869 27.9298C39.9668 27.5969 39.9365 27.3675 39.8962 27.2416C39.8458 27.0976 39.7853 26.9537 39.7147 26.8097C39.6543 26.6838 39.5786 26.5578 39.4879 26.4318C39.4073 26.2969 39.3115 26.1799 39.2006 26.081Z" fill="black"/>
<path d="M26.62 26.1893C26.9425 26.1983 27.2248 26.2028 27.4667 26.2028C27.7087 26.1938 27.9052 26.1893 28.0565 26.1893H28.495C28.6058 26.1803 28.7419 26.1758 28.9032 26.1758C29.0444 26.1758 29.2157 26.1758 29.4173 26.1758C29.619 26.1758 29.8508 26.1803 30.1129 26.1893C30.1935 26.4412 30.2843 26.6886 30.3851 26.9315C30.496 27.1654 30.5917 27.3769 30.6724 27.5658C30.7732 27.7907 30.874 28.0021 30.9748 28.2001C31.0756 28.398 31.1966 28.6364 31.3377 28.9153C31.4587 29.1492 31.6048 29.4371 31.7762 29.779C31.9476 30.1119 32.1492 30.4943 32.381 30.9261C32.4919 30.6472 32.5927 30.3908 32.6835 30.1569C32.7843 29.923 32.87 29.7205 32.9405 29.5496C33.0212 29.3517 33.0867 29.1717 33.1371 29.0098C33.1875 28.8478 33.2429 28.6499 33.3034 28.416C33.3538 28.2181 33.4093 27.9796 33.4698 27.7007C33.5403 27.4218 33.6109 27.098 33.6815 26.7291C33.9738 26.7291 34.2359 26.7291 34.4677 26.7291C34.6996 26.7291 34.9012 26.7246 35.0726 26.7156C35.2641 26.7156 35.4355 26.7111 35.5867 26.7021C35.748 26.7021 35.9647 26.6931 36.2369 26.6751C36.4688 26.6571 36.7762 26.6436 37.1593 26.6346C37.5524 26.6166 38.0363 26.5941 38.6109 26.5671C38.3992 26.7021 38.2278 26.837 38.0968 26.972C37.9758 27.098 37.88 27.2104 37.8095 27.3094C37.7288 27.4263 37.6784 27.5388 37.6583 27.6468C37.6381 27.7367 37.6179 27.9437 37.5978 28.2675C37.5877 28.5914 37.5726 28.9783 37.5524 29.4281C37.5423 29.869 37.5323 30.3413 37.5222 30.8451C37.5222 31.349 37.5272 31.8258 37.5373 32.2756C37.5474 32.7255 37.5625 33.1169 37.5827 33.4497C37.6129 33.7736 37.6532 33.9805 37.7036 34.0705C37.7742 34.1785 37.87 34.3044 37.9909 34.4484C38.1018 34.5743 38.2429 34.7183 38.4143 34.8802C38.5958 35.0422 38.8327 35.2221 39.125 35.42C38.6613 35.438 38.2732 35.4515 37.9607 35.4605C37.6583 35.4695 37.4062 35.4785 37.2046 35.4875C36.9728 35.4965 36.7863 35.501 36.6452 35.501C36.494 35.501 36.2873 35.5055 36.0252 35.5145C35.7933 35.5235 35.4859 35.537 35.1028 35.555C34.7198 35.564 34.2258 35.582 33.621 35.609C33.7621 35.465 33.8931 35.3211 34.0141 35.1771C34.1351 35.0332 34.2359 34.9027 34.3165 34.7858C34.4173 34.6508 34.503 34.5204 34.5736 34.3944C34.6442 34.2235 34.6996 33.9131 34.7399 33.4632C34.7802 33.0764 34.8105 32.5231 34.8306 31.8033C34.8508 31.0746 34.8508 30.0984 34.8306 28.8748C34.6391 29.1537 34.4677 29.4326 34.3165 29.7115C34.1754 29.9814 34.0494 30.2289 33.9385 30.4538C33.8175 30.7147 33.7067 30.9666 33.6058 31.2095C33.505 31.4614 33.3992 31.7403 33.2883 32.0462C33.1875 32.3071 33.0665 32.6175 32.9254 32.9774C32.7944 33.3373 32.6431 33.7331 32.4718 34.165L31.8972 34.192C31.8165 33.8321 31.7359 33.5082 31.6552 33.2203C31.5746 32.9234 31.494 32.6715 31.4133 32.4646C31.3226 32.2217 31.2319 32.0057 31.1411 31.8168C31.0403 31.6279 30.9294 31.4164 30.8085 31.1825C30.6976 30.9846 30.5615 30.7507 30.4002 30.4808C30.249 30.2109 30.0726 29.9095 29.871 29.5766C29.7702 30.4943 29.7097 31.241 29.6895 31.8168C29.6694 32.3836 29.6694 32.8245 29.6895 33.1393C29.7097 33.5172 29.7399 33.7916 29.7802 33.9626C29.8407 34.1155 29.9365 34.2864 30.0675 34.4754C30.1784 34.6373 30.3296 34.8308 30.5212 35.0557C30.7228 35.2716 30.9798 35.5145 31.2923 35.7844C31.0706 35.7844 30.8387 35.7844 30.5968 35.7844C30.3548 35.7844 30.1331 35.7889 29.9315 35.7979C29.6895 35.8069 29.4526 35.8114 29.2208 35.8114C28.9788 35.8204 28.6966 35.8339 28.374 35.8519C28.0917 35.8699 27.754 35.8879 27.3609 35.9059C26.9677 35.9239 26.5141 35.9554 26 36.0003C26.2218 35.8744 26.4032 35.7529 26.5444 35.636C26.6855 35.51 26.7964 35.3976 26.877 35.2986C26.9778 35.1816 27.0534 35.0647 27.1038 34.9477C27.1341 34.8757 27.1593 34.7183 27.1794 34.4754C27.2097 34.2325 27.2349 33.9356 27.255 33.5847C27.2853 33.2338 27.3054 32.8424 27.3155 32.4106C27.3357 31.9787 27.3508 31.5424 27.3609 31.1016C27.381 30.6517 27.3962 30.2154 27.4062 29.7925C27.4163 29.3607 27.4214 28.9738 27.4214 28.6319C27.4315 28.281 27.4365 27.9886 27.4365 27.7547C27.4365 27.5208 27.4365 27.3724 27.4365 27.3094C27.4062 27.1744 27.3609 27.0395 27.3004 26.9045C27.25 26.7876 27.1694 26.6661 27.0585 26.5402C26.9476 26.4142 26.8014 26.2972 26.62 26.1893Z" fill="black"/>
<defs>
<filter id="filter0_d_106_30" x="0" y="0" width="63.7812" height="69" filterUnits="userSpaceOnUse" color-interpolation-filters="sRGB">
<feFlood flood-opacity="0" result="BackgroundImageFix"/>
<feColorMatrix in="SourceAlpha" type="matrix" values="0 0 0 0 0 0 0 0 0 0 0 0 0 0 0 0 0 0 127 0" result="hardAlpha"/>
<feOffset dy="10"/>
<feGaussianBlur stdDeviation="2"/>
<feComposite in2="hardAlpha" operator="out"/>
<feColorMatrix type="matrix" values="0 0 0 0 0 0 0 0 0 0 0 0 0 0 0 0 0 0 0.25 0"/>
<feBlend mode="normal" in2="BackgroundImageFix" result="effect1_dropShadow_106_30"/>
<feBlend mode="normal" in="SourceGraphic" in2="effect1_dropShadow_106_30" result="shape"/>
</filter>
<filter id="filter1_d_106_30" x="14.2188" y="0" width="63.7812" height="69" filterUnits="userSpaceOnUse" color-interpolation-filters="sRGB">
<feFlood flood-opacity="0" result="BackgroundImageFix"/>
<feColorMatrix in="SourceAlpha" type="matrix" values="0 0 0 0 0 0 0 0 0 0 0 0 0 0 0 0 0 0 127 0" result="hardAlpha"/>
<feOffset dy="10"/>
<feGaussianBlur stdDeviation="2"/>
<feComposite in2="hardAlpha" operator="out"/>
<feColorMatrix type="matrix" values="0 0 0 0 0 0 0 0 0 0 0 0 0 0 0 0 0 0 0.25 0"/>
<feBlend mode="normal" in2="BackgroundImageFix" result="effect1_dropShadow_106_30"/>
<feBlend mode="normal" in="SourceGraphic" in2="effect1_dropShadow_106_30" result="shape"/>
</filter>
</defs>
</svg>
