<svg width="22" height="22" viewBox="0 0 22 22" fill="none" xmlns="http://www.w3.org/2000/svg">
<path d="M11 0C4.92 0 0 4.92 0 11C0 17.08 4.92 22 11 22C17.08 22 22 17.08 22 11C22 4.92 17.08 0 11 0ZM11 19C8.87827 19 6.84344 18.1571 5.34315 16.6569C3.84285 15.1566 3 13.1217 3 11C3 8.87827 3.84285 6.84344 5.34315 5.34315C6.84344 3.84285 8.87827 3 11 3C13.1217 3 15.1566 3.84285 16.6569 5.34315C18.1571 6.84344 19 8.87827 19 11C19 13.1217 18.1571 15.1566 16.6569 16.6569C15.1566 18.1571 13.1217 19 11 19ZM12 12.5C12 13.13 12.4 13.7 13 13.91V17H9V10.91C9.78 10.64 10.19 9.8 9.93 9C9.85326 8.78822 9.72981 8.59645 9.56881 8.43891C9.40781 8.28137 9.21339 8.16212 9 8.09V5H13V11.09C12.4 11.3 12 11.87 12 12.5Z" fill="black"/>
</svg>
